<?xml version="1.0" encoding="UTF-8" standalone="no"?>
<!DOCTYPE svg PUBLIC "-//W3C//DTD SVG 1.1//EN"
 "http://www.w3.org/Graphics/SVG/1.1/DTD/svg11.dtd">
<!-- Generated by graphviz version 2.43.0 (0)
 -->
<!-- Title: src/interactive_mode/argument_parser_internal.h Pages: 1 -->
<svg width="183pt" height="159pt"
 viewBox="0.00 0.00 183.00 159.00" xmlns="http://www.w3.org/2000/svg" xmlns:xlink="http://www.w3.org/1999/xlink">
<g id="graph0" class="graph" transform="scale(1 1) rotate(0) translate(4 155)">
<title>src/interactive_mode/argument_parser_internal.h</title>
<!-- Node1 -->
<g id="Node000001" class="node">
<title>Node1</title>
<g id="a_Node000001"><a xlink:title="Argument parser internal API exposed for testing.">
<polygon fill="#999999" stroke="#666666" points="175,-151 20,-151 20,-121 175,-121 175,-151"/>
<text text-anchor="start" x="28" y="-139" font-family="Helvetica,sans-Serif" font-size="10.00">src/interactive_mode</text>
<text text-anchor="middle" x="97.5" y="-128" font-family="Helvetica,sans-Serif" font-size="10.00">/argument_parser_internal.h</text>
</a>
</g>
</g>
<!-- Node2 -->
<g id="Node000002" class="node">
<title>Node2</title>
<g id="a_Node000002"><a xlink:href="interactive__mode_8h.html" target="_top" xlink:title="Argument parser API for interactive mode.">
<polygon fill="white" stroke="#666666" points="111,-85 0,-85 0,-66 111,-66 111,-85"/>
<text text-anchor="middle" x="55.5" y="-73" font-family="Helvetica,sans-Serif" font-size="10.00">interactive_mode.h</text>
</a>
</g>
</g>
<!-- Node1&#45;&gt;Node2 -->
<g id="edge1_Node000001_Node000002" class="edge">
<title>Node1&#45;&gt;Node2</title>
<g id="a_edge1_Node000001_Node000002"><a xlink:title=" ">
<path fill="none" stroke="#63b8ff" d="M87.33,-120.84C81.42,-112.61 73.94,-102.18 67.71,-93.51"/>
<polygon fill="#63b8ff" stroke="#63b8ff" points="70.47,-91.35 61.79,-85.27 64.78,-95.43 70.47,-91.35"/>
</a>
</g>
</g>
<!-- Node3 -->
<g id="Node000003" class="node">
<title>Node3</title>
<g id="a_Node000003"><a xlink:href="fprintf__color_8h.html" target="_top" xlink:title="Header file for fprintf_color() function.">
<polygon fill="white" stroke="#666666" points="156.5,-30 38.5,-30 38.5,0 156.5,0 156.5,-30"/>
<text text-anchor="start" x="46.5" y="-18" font-family="Helvetica,sans-Serif" font-size="10.00">../fprintf_color/fprintf</text>
<text text-anchor="middle" x="97.5" y="-7" font-family="Helvetica,sans-Serif" font-size="10.00">_color.h</text>
</a>
</g>
</g>
<!-- Node1&#45;&gt;Node3 -->
<g id="edge3_Node000001_Node000003" class="edge">
<title>Node1&#45;&gt;Node3</title>
<g id="a_edge3_Node000001_Node000003"><a xlink:title=" ">
<path fill="none" stroke="#63b8ff" d="M105.72,-120.66C110.8,-110.94 116.85,-97.62 119.5,-85 122.79,-69.36 117.39,-52.23 111.11,-38.96"/>
<polygon fill="#63b8ff" stroke="#63b8ff" points="114.2,-37.32 106.5,-30.05 107.99,-40.54 114.2,-37.32"/>
</a>
</g>
</g>
<!-- Node2&#45;&gt;Node3 -->
<g id="edge2_Node000002_Node000003" class="edge">
<title>Node2&#45;&gt;Node3</title>
<g id="a_edge2_Node000002_Node000003"><a xlink:title=" ">
<path fill="none" stroke="#63b8ff" d="M61.7,-65.87C66.87,-58.67 74.48,-48.07 81.35,-38.49"/>
<polygon fill="#63b8ff" stroke="#63b8ff" points="84.38,-40.28 87.37,-30.11 78.69,-36.2 84.38,-40.28"/>
</a>
</g>
</g>
</g>
</svg>
