<?xml version="1.0" encoding="UTF-8" standalone="no"?>
<!DOCTYPE svg PUBLIC "-//W3C//DTD SVG 1.1//EN"
 "http://www.w3.org/Graphics/SVG/1.1/DTD/svg11.dtd">
<!-- Generated by graphviz version 2.43.0 (0)
 -->
<!-- Title: src/interactive_mode/argument_parser.c Pages: 1 -->
<svg width="417pt" height="214pt"
 viewBox="0.00 0.00 417.00 214.00" xmlns="http://www.w3.org/2000/svg" xmlns:xlink="http://www.w3.org/1999/xlink">
<g id="graph0" class="graph" transform="scale(1 1) rotate(0) translate(4 210)">
<title>src/interactive_mode/argument_parser.c</title>
<!-- Node1 -->
<g id="Node000001" class="node">
<title>Node1</title>
<g id="a_Node000001"><a xlink:title="Argument parser API for interactive mode.">
<polygon fill="#999999" stroke="#666666" points="189.5,-206 70.5,-206 70.5,-176 189.5,-176 189.5,-206"/>
<text text-anchor="start" x="78.5" y="-194" font-family="Helvetica,sans-Serif" font-size="10.00">src/interactive_mode</text>
<text text-anchor="middle" x="130" y="-183" font-family="Helvetica,sans-Serif" font-size="10.00">/argument_parser.c</text>
</a>
</g>
</g>
<!-- Node2 -->
<g id="Node000002" class="node">
<title>Node2</title>
<g id="a_Node000002"><a xlink:title=" ">
<polygon fill="#e0e0e0" stroke="#999999" points="50,-140 0,-140 0,-121 50,-121 50,-140"/>
<text text-anchor="middle" x="25" y="-128" font-family="Helvetica,sans-Serif" font-size="10.00">stdio.h</text>
</a>
</g>
</g>
<!-- Node1&#45;&gt;Node2 -->
<g id="edge1_Node000001_Node000002" class="edge">
<title>Node1&#45;&gt;Node2</title>
<g id="a_edge1_Node000001_Node000002"><a xlink:title=" ">
<path fill="none" stroke="#63b8ff" d="M104.85,-175.99C88.11,-166.66 66.23,-154.47 49.61,-145.21"/>
<polygon fill="#63b8ff" stroke="#63b8ff" points="50.95,-141.95 40.51,-140.14 47.54,-148.06 50.95,-141.95"/>
</a>
</g>
</g>
<!-- Node3 -->
<g id="Node000003" class="node">
<title>Node3</title>
<g id="a_Node000003"><a xlink:title=" ">
<polygon fill="#e0e0e0" stroke="#999999" points="121.5,-140 68.5,-140 68.5,-121 121.5,-121 121.5,-140"/>
<text text-anchor="middle" x="95" y="-128" font-family="Helvetica,sans-Serif" font-size="10.00">stdlib.h</text>
</a>
</g>
</g>
<!-- Node1&#45;&gt;Node3 -->
<g id="edge2_Node000001_Node000003" class="edge">
<title>Node1&#45;&gt;Node3</title>
<g id="a_edge2_Node000001_Node000003"><a xlink:title=" ">
<path fill="none" stroke="#63b8ff" d="M121.53,-175.84C116.71,-167.78 110.63,-157.62 105.5,-149.06"/>
<polygon fill="#63b8ff" stroke="#63b8ff" points="108.38,-147.05 100.24,-140.27 102.38,-150.64 108.38,-147.05"/>
</a>
</g>
</g>
<!-- Node4 -->
<g id="Node000004" class="node">
<title>Node4</title>
<g id="a_Node000004"><a xlink:title=" ">
<polygon fill="#e0e0e0" stroke="#999999" points="192.5,-140 139.5,-140 139.5,-121 192.5,-121 192.5,-140"/>
<text text-anchor="middle" x="166" y="-128" font-family="Helvetica,sans-Serif" font-size="10.00">string.h</text>
</a>
</g>
</g>
<!-- Node1&#45;&gt;Node4 -->
<g id="edge3_Node000001_Node000004" class="edge">
<title>Node1&#45;&gt;Node4</title>
<g id="a_edge3_Node000001_Node000004"><a xlink:title=" ">
<path fill="none" stroke="#63b8ff" d="M138.71,-175.84C143.67,-167.78 149.93,-157.62 155.2,-149.06"/>
<polygon fill="#63b8ff" stroke="#63b8ff" points="158.35,-150.62 160.61,-140.27 152.38,-146.95 158.35,-150.62"/>
</a>
</g>
</g>
<!-- Node5 -->
<g id="Node000005" class="node">
<title>Node5</title>
<g id="a_Node000005"><a xlink:href="argument__parser__internal_8h.html" target="_top" xlink:title="Argument parser internal API exposed for testing.">
<polygon fill="white" stroke="#666666" points="363,-140 211,-140 211,-121 363,-121 363,-140"/>
<text text-anchor="middle" x="287" y="-128" font-family="Helvetica,sans-Serif" font-size="10.00">argument_parser_internal.h</text>
</a>
</g>
</g>
<!-- Node1&#45;&gt;Node5 -->
<g id="edge4_Node000001_Node000005" class="edge">
<title>Node1&#45;&gt;Node5</title>
<g id="a_edge4_Node000001_Node000005"><a xlink:title=" ">
<path fill="none" stroke="#63b8ff" d="M167.61,-175.99C194.03,-166.14 229.04,-153.1 254.31,-143.68"/>
<polygon fill="#63b8ff" stroke="#63b8ff" points="255.67,-146.91 263.81,-140.14 253.22,-140.35 255.67,-146.91"/>
</a>
</g>
</g>
<!-- Node6 -->
<g id="Node000006" class="node">
<title>Node6</title>
<g id="a_Node000006"><a xlink:href="interactive__mode_8h.html" target="_top" xlink:title="Argument parser API for interactive mode.">
<polygon fill="white" stroke="#666666" points="276.5,-79.5 165.5,-79.5 165.5,-60.5 276.5,-60.5 276.5,-79.5"/>
<text text-anchor="middle" x="221" y="-67.5" font-family="Helvetica,sans-Serif" font-size="10.00">interactive_mode.h</text>
</a>
</g>
</g>
<!-- Node5&#45;&gt;Node6 -->
<g id="edge5_Node000005_Node000006" class="edge">
<title>Node5&#45;&gt;Node6</title>
<g id="a_edge5_Node000005_Node000006"><a xlink:title=" ">
<path fill="none" stroke="#63b8ff" d="M277.26,-120.87C267.03,-111.8 250.71,-97.34 238.28,-86.32"/>
<polygon fill="#63b8ff" stroke="#63b8ff" points="240.58,-83.68 230.78,-79.67 235.94,-88.92 240.58,-83.68"/>
</a>
</g>
</g>
<!-- Node8 -->
<g id="Node000008" class="node">
<title>Node8</title>
<g id="a_Node000008"><a xlink:href="fprintf__color_8h.html" target="_top" xlink:title="Header file for fprintf_color() function.">
<polygon fill="white" stroke="#666666" points="409,-85 295,-85 295,-55 409,-55 409,-85"/>
<text text-anchor="start" x="303" y="-73" font-family="Helvetica,sans-Serif" font-size="10.00">../printf_color/fprintf</text>
<text text-anchor="middle" x="352" y="-62" font-family="Helvetica,sans-Serif" font-size="10.00">_color.h</text>
</a>
</g>
</g>
<!-- Node5&#45;&gt;Node8 -->
<g id="edge7_Node000005_Node000008" class="edge">
<title>Node5&#45;&gt;Node8</title>
<g id="a_edge7_Node000005_Node000008"><a xlink:title=" ">
<path fill="none" stroke="#63b8ff" d="M296.59,-120.87C305,-113.3 317.58,-101.98 328.63,-92.04"/>
<polygon fill="#63b8ff" stroke="#63b8ff" points="331.23,-94.41 336.32,-85.11 326.54,-89.2 331.23,-94.41"/>
</a>
</g>
</g>
<!-- Node7 -->
<g id="Node000007" class="node">
<title>Node7</title>
<g id="a_Node000007"><a xlink:title=" ">
<polygon fill="#e0e0e0" stroke="#999999" points="247.5,-19 194.5,-19 194.5,0 247.5,0 247.5,-19"/>
<text text-anchor="middle" x="221" y="-7" font-family="Helvetica,sans-Serif" font-size="10.00">stdint.h</text>
</a>
</g>
</g>
<!-- Node6&#45;&gt;Node7 -->
<g id="edge6_Node000006_Node000007" class="edge">
<title>Node6&#45;&gt;Node7</title>
<g id="a_edge6_Node000006_Node000007"><a xlink:title=" ">
<path fill="none" stroke="#63b8ff" d="M221,-60.37C221,-52.25 221,-39.81 221,-29.39"/>
<polygon fill="#63b8ff" stroke="#63b8ff" points="224.5,-29.17 221,-19.17 217.5,-29.17 224.5,-29.17"/>
</a>
</g>
</g>
</g>
</svg>
