<?xml version="1.0" encoding="UTF-8" standalone="no"?>
<!DOCTYPE svg PUBLIC "-//W3C//DTD SVG 1.1//EN"
 "http://www.w3.org/Graphics/SVG/1.1/DTD/svg11.dtd">
<!-- Generated by graphviz version 2.43.0 (0)
 -->
<!-- Title: src/interactive_mode/argument_parser.c Pages: 1 -->
<svg width="371pt" height="214pt"
 viewBox="0.00 0.00 371.00 214.00" xmlns="http://www.w3.org/2000/svg" xmlns:xlink="http://www.w3.org/1999/xlink">
<g id="graph0" class="graph" transform="scale(1 1) rotate(0) translate(4 210)">
<title>src/interactive_mode/argument_parser.c</title>
<!-- Node1 -->
<g id="Node000001" class="node">
<title>Node1</title>
<g id="a_Node000001"><a xlink:title="Argument parser API for interactive mode.">
<polygon fill="#999999" stroke="#666666" points="189.5,-206 70.5,-206 70.5,-176 189.5,-176 189.5,-206"/>
<text text-anchor="start" x="78.5" y="-194" font-family="Helvetica,sans-Serif" font-size="10.00">src/interactive_mode</text>
<text text-anchor="middle" x="130" y="-183" font-family="Helvetica,sans-Serif" font-size="10.00">/argument_parser.c</text>
</a>
</g>
</g>
<!-- Node2 -->
<g id="Node000002" class="node">
<title>Node2</title>
<g id="a_Node000002"><a xlink:title=" ">
<polygon fill="#e0e0e0" stroke="#999999" points="50,-140 0,-140 0,-121 50,-121 50,-140"/>
<text text-anchor="middle" x="25" y="-128" font-family="Helvetica,sans-Serif" font-size="10.00">stdio.h</text>
</a>
</g>
</g>
<!-- Node1&#45;&gt;Node2 -->
<g id="edge1_Node000001_Node000002" class="edge">
<title>Node1&#45;&gt;Node2</title>
<g id="a_edge1_Node000001_Node000002"><a xlink:title=" ">
<path fill="none" stroke="#63b8ff" d="M104.85,-175.99C88.11,-166.66 66.23,-154.47 49.61,-145.21"/>
<polygon fill="#63b8ff" stroke="#63b8ff" points="50.95,-141.95 40.51,-140.14 47.54,-148.06 50.95,-141.95"/>
</a>
</g>
</g>
<!-- Node3 -->
<g id="Node000003" class="node">
<title>Node3</title>
<g id="a_Node000003"><a xlink:title=" ">
<polygon fill="#e0e0e0" stroke="#999999" points="121.5,-140 68.5,-140 68.5,-121 121.5,-121 121.5,-140"/>
<text text-anchor="middle" x="95" y="-128" font-family="Helvetica,sans-Serif" font-size="10.00">stdlib.h</text>
</a>
</g>
</g>
<!-- Node1&#45;&gt;Node3 -->
<g id="edge2_Node000001_Node000003" class="edge">
<title>Node1&#45;&gt;Node3</title>
<g id="a_edge2_Node000001_Node000003"><a xlink:title=" ">
<path fill="none" stroke="#63b8ff" d="M121.53,-175.84C116.71,-167.78 110.63,-157.62 105.5,-149.06"/>
<polygon fill="#63b8ff" stroke="#63b8ff" points="108.38,-147.05 100.24,-140.27 102.38,-150.64 108.38,-147.05"/>
</a>
</g>
</g>
<!-- Node4 -->
<g id="Node000004" class="node">
<title>Node4</title>
<g id="a_Node000004"><a xlink:title=" ">
<polygon fill="#e0e0e0" stroke="#999999" points="192.5,-140 139.5,-140 139.5,-121 192.5,-121 192.5,-140"/>
<text text-anchor="middle" x="166" y="-128" font-family="Helvetica,sans-Serif" font-size="10.00">string.h</text>
</a>
</g>
</g>
<!-- Node1&#45;&gt;Node4 -->
<g id="edge3_Node000001_Node000004" class="edge">
<title>Node1&#45;&gt;Node4</title>
<g id="a_edge3_Node000001_Node000004"><a xlink:title=" ">
<path fill="none" stroke="#63b8ff" d="M138.71,-175.84C143.67,-167.78 149.93,-157.62 155.2,-149.06"/>
<polygon fill="#63b8ff" stroke="#63b8ff" points="158.35,-150.62 160.61,-140.27 152.38,-146.95 158.35,-150.62"/>
</a>
</g>
</g>
<!-- Node5 -->
<g id="Node000005" class="node">
<title>Node5</title>
<g id="a_Node000005"><a xlink:href="argument__parser__internal_8h.html" target="_top" xlink:title="Argument parser internal API exposed for testing.">
<polygon fill="white" stroke="#666666" points="363,-140 211,-140 211,-121 363,-121 363,-140"/>
<text text-anchor="middle" x="287" y="-128" font-family="Helvetica,sans-Serif" font-size="10.00">argument_parser_internal.h</text>
</a>
</g>
</g>
<!-- Node1&#45;&gt;Node5 -->
<g id="edge4_Node000001_Node000005" class="edge">
<title>Node1&#45;&gt;Node5</title>
<g id="a_edge4_Node000001_Node000005"><a xlink:title=" ">
<path fill="none" stroke="#63b8ff" d="M167.61,-175.99C194.03,-166.14 229.04,-153.1 254.31,-143.68"/>
<polygon fill="#63b8ff" stroke="#63b8ff" points="255.67,-146.91 263.81,-140.14 253.22,-140.35 255.67,-146.91"/>
</a>
</g>
</g>
<!-- Node6 -->
<g id="Node000006" class="node">
<title>Node6</title>
<g id="a_Node000006"><a xlink:href="interactive__mode_8h.html" target="_top" xlink:title="Argument parser API for interactive mode.">
<polygon fill="white" stroke="#666666" points="300.5,-85 189.5,-85 189.5,-66 300.5,-66 300.5,-85"/>
<text text-anchor="middle" x="245" y="-73" font-family="Helvetica,sans-Serif" font-size="10.00">interactive_mode.h</text>
</a>
</g>
</g>
<!-- Node5&#45;&gt;Node6 -->
<g id="edge5_Node000005_Node000006" class="edge">
<title>Node5&#45;&gt;Node6</title>
<g id="a_edge5_Node000005_Node000006"><a xlink:title=" ">
<path fill="none" stroke="#63b8ff" d="M280.06,-120.75C274.13,-113.26 265.43,-102.28 258.18,-93.13"/>
<polygon fill="#63b8ff" stroke="#63b8ff" points="260.76,-90.75 251.81,-85.09 255.27,-95.1 260.76,-90.75"/>
</a>
</g>
</g>
<!-- Node7 -->
<g id="Node000007" class="node">
<title>Node7</title>
<g id="a_Node000007"><a xlink:href="fprintf__color_8h.html" target="_top" xlink:title="Header file for fprintf_color() function.">
<polygon fill="white" stroke="#666666" points="346,-30 228,-30 228,0 346,0 346,-30"/>
<text text-anchor="start" x="236" y="-18" font-family="Helvetica,sans-Serif" font-size="10.00">../fprintf_color/fprintf</text>
<text text-anchor="middle" x="287" y="-7" font-family="Helvetica,sans-Serif" font-size="10.00">_color.h</text>
</a>
</g>
</g>
<!-- Node5&#45;&gt;Node7 -->
<g id="edge7_Node000005_Node000007" class="edge">
<title>Node5&#45;&gt;Node7</title>
<g id="a_edge7_Node000005_Node000007"><a xlink:title=" ">
<path fill="none" stroke="#63b8ff" d="M292.84,-120.76C298.25,-112.1 305.9,-98.26 309,-85 312.64,-69.43 307.24,-52.31 300.88,-39.02"/>
<polygon fill="#63b8ff" stroke="#63b8ff" points="303.94,-37.32 296.19,-30.09 297.74,-40.57 303.94,-37.32"/>
</a>
</g>
</g>
<!-- Node6&#45;&gt;Node7 -->
<g id="edge6_Node000006_Node000007" class="edge">
<title>Node6&#45;&gt;Node7</title>
<g id="a_edge6_Node000006_Node000007"><a xlink:title=" ">
<path fill="none" stroke="#63b8ff" d="M251.2,-65.87C256.37,-58.67 263.98,-48.07 270.85,-38.49"/>
<polygon fill="#63b8ff" stroke="#63b8ff" points="273.88,-40.28 276.87,-30.11 268.19,-36.2 273.88,-40.28"/>
</a>
</g>
</g>
</g>
</svg>
