<?xml version="1.0" encoding="UTF-8" standalone="no"?>
<!DOCTYPE svg PUBLIC "-//W3C//DTD SVG 1.1//EN"
 "http://www.w3.org/Graphics/SVG/1.1/DTD/svg11.dtd">
<!-- Generated by graphviz version 2.43.0 (0)
 -->
<!-- Title: src/interactive_mode/argument_parser_internal.h Pages: 1 -->
<svg width="252pt" height="159pt"
 viewBox="0.00 0.00 251.50 159.00" xmlns="http://www.w3.org/2000/svg" xmlns:xlink="http://www.w3.org/1999/xlink">
<g id="graph0" class="graph" transform="scale(1 1) rotate(0) translate(4 155)">
<title>src/interactive_mode/argument_parser_internal.h</title>
<!-- Node1 -->
<g id="Node000001" class="node">
<title>Node1</title>
<g id="a_Node000001"><a xlink:title="Argument parser internal API exposed for testing.">
<polygon fill="#999999" stroke="#666666" points="198,-151 43,-151 43,-121 198,-121 198,-151"/>
<text text-anchor="start" x="51" y="-139" font-family="Helvetica,sans-Serif" font-size="10.00">src/interactive_mode</text>
<text text-anchor="middle" x="120.5" y="-128" font-family="Helvetica,sans-Serif" font-size="10.00">/argument_parser_internal.h</text>
</a>
</g>
</g>
<!-- Node2 -->
<g id="Node000002" class="node">
<title>Node2</title>
<g id="a_Node000002"><a xlink:href="interactive__mode_8h.html" target="_top" xlink:title="Argument parser API for interactive mode.">
<polygon fill="white" stroke="#666666" points="111,-79.5 0,-79.5 0,-60.5 111,-60.5 111,-79.5"/>
<text text-anchor="middle" x="55.5" y="-67.5" font-family="Helvetica,sans-Serif" font-size="10.00">interactive_mode.h</text>
</a>
</g>
</g>
<!-- Node1&#45;&gt;Node2 -->
<g id="edge1_Node000001_Node000002" class="edge">
<title>Node1&#45;&gt;Node2</title>
<g id="a_edge1_Node000001_Node000002"><a xlink:title=" ">
<path fill="none" stroke="#63b8ff" d="M106.07,-120.8C95.94,-110.82 82.37,-97.46 71.84,-87.09"/>
<polygon fill="#63b8ff" stroke="#63b8ff" points="74.06,-84.37 64.48,-79.84 69.15,-89.35 74.06,-84.37"/>
</a>
</g>
</g>
<!-- Node4 -->
<g id="Node000004" class="node">
<title>Node4</title>
<g id="a_Node000004"><a xlink:href="fprintf__color_8h.html" target="_top" xlink:title="Header file for fprintf_color() function.">
<polygon fill="white" stroke="#666666" points="243.5,-85 129.5,-85 129.5,-55 243.5,-55 243.5,-85"/>
<text text-anchor="start" x="137.5" y="-73" font-family="Helvetica,sans-Serif" font-size="10.00">../printf_color/fprintf</text>
<text text-anchor="middle" x="186.5" y="-62" font-family="Helvetica,sans-Serif" font-size="10.00">_color.h</text>
</a>
</g>
</g>
<!-- Node1&#45;&gt;Node4 -->
<g id="edge3_Node000001_Node000004" class="edge">
<title>Node1&#45;&gt;Node4</title>
<g id="a_edge3_Node000001_Node000004"><a xlink:title=" ">
<path fill="none" stroke="#63b8ff" d="M135.15,-120.8C143.78,-112.43 154.86,-101.68 164.52,-92.31"/>
<polygon fill="#63b8ff" stroke="#63b8ff" points="167.15,-94.64 171.89,-85.16 162.28,-89.61 167.15,-94.64"/>
</a>
</g>
</g>
<!-- Node3 -->
<g id="Node000003" class="node">
<title>Node3</title>
<g id="a_Node000003"><a xlink:title=" ">
<polygon fill="#e0e0e0" stroke="#999999" points="82,-19 29,-19 29,0 82,0 82,-19"/>
<text text-anchor="middle" x="55.5" y="-7" font-family="Helvetica,sans-Serif" font-size="10.00">stdint.h</text>
</a>
</g>
</g>
<!-- Node2&#45;&gt;Node3 -->
<g id="edge2_Node000002_Node000003" class="edge">
<title>Node2&#45;&gt;Node3</title>
<g id="a_edge2_Node000002_Node000003"><a xlink:title=" ">
<path fill="none" stroke="#63b8ff" d="M55.5,-60.37C55.5,-52.25 55.5,-39.81 55.5,-29.39"/>
<polygon fill="#63b8ff" stroke="#63b8ff" points="59,-29.17 55.5,-19.17 52,-29.17 59,-29.17"/>
</a>
</g>
</g>
</g>
</svg>
