<?xml version="1.0" encoding="UTF-8" standalone="no"?>
<!DOCTYPE svg PUBLIC "-//W3C//DTD SVG 1.1//EN"
 "http://www.w3.org/Graphics/SVG/1.1/DTD/svg11.dtd">
<!-- Generated by graphviz version 2.43.0 (0)
 -->
<!-- Title: src Pages: 1 -->
<svg width="162pt" height="224pt"
 viewBox="0.00 0.00 162.00 224.00" xmlns="http://www.w3.org/2000/svg" xmlns:xlink="http://www.w3.org/1999/xlink">
<g id="graph0" class="graph" transform="scale(1 1) rotate(0) translate(4 220)">
<title>src</title>
<g id="clust1" class="cluster">
<title>clusterdir_68267d1309a1af8e8297ef4c3efbcdba</title>
<g id="a_clust1"><a xlink:href="dir_68267d1309a1af8e8297ef4c3efbcdba.html" target="_top">
<polygon fill="#edf0f7" stroke="#404040" stroke-width="2" points="8,-8 8,-208 146,-208 146,-8 8,-8"/>
</a>
</g>
</g>
<!-- dir_68267d1309a1af8e8297ef4c3efbcdba -->
<g id="node1" class="node">
<title>dir_68267d1309a1af8e8297ef4c3efbcdba</title>
<text text-anchor="middle" x="71" y="-188" font-family="Helvetica,sans-Serif" font-size="10.00">src</text>
</g>
<!-- dir_28fd4ee744d5c30ea598f5925cc2cfab -->
<g id="node2" class="node">
<title>dir_28fd4ee744d5c30ea598f5925cc2cfab</title>
<g id="a_node2"><a xlink:href="dir_28fd4ee744d5c30ea598f5925cc2cfab.html" target="_top" xlink:title="fprintf_color">
<polygon fill="#a2b4d6" stroke="#404040" points="108,-35 32,-35 32,-16 108,-16 108,-35"/>
<text text-anchor="middle" x="70" y="-23" font-family="Helvetica,sans-Serif" font-size="10.00">fprintf_color</text>
</a>
</g>
</g>
<!-- dir_68267d1309a1af8e8297ef4c3efbcdba&#45;&gt;dir_28fd4ee744d5c30ea598f5925cc2cfab -->
<g id="edge1" class="edge">
<title>dir_68267d1309a1af8e8297ef4c3efbcdba&#45;&gt;dir_28fd4ee744d5c30ea598f5925cc2cfab</title>
<g id="a_edge1"><a xlink:href="dir_000004_000001.html" target="_top">
<path fill="none" stroke="#63b8ff" d="M58.22,-181C47.61,-173.1 33.28,-160.27 27,-145 14.5,-114.58 14.67,-101.49 27,-71 31.69,-59.41 41,-49.16 49.76,-41.43"/>
<polygon fill="#63b8ff" stroke="#63b8ff" points="52,-44.12 57.51,-35.07 47.56,-38.71 52,-44.12"/>
</a>
</g>
<g id="a_edge1&#45;headlabel"><a xlink:href="dir_000004_000001.html" target="_top" xlink:title="3">
<text text-anchor="middle" x="51.02" y="-46.1" font-family="Helvetica,sans-Serif" font-size="10.00" fill="#63b8ff">3</text>
</a>
</g>
</g>
<!-- dir_2d0f4cc7ed3c530a9d9d22c6d4bb40cc -->
<g id="node3" class="node">
<title>dir_2d0f4cc7ed3c530a9d9d22c6d4bb40cc</title>
<g id="a_node3"><a xlink:href="dir_2d0f4cc7ed3c530a9d9d22c6d4bb40cc.html" target="_top" xlink:title="hash_table">
<polygon fill="#a2b4d6" stroke="#404040" points="106,-145 36,-145 36,-126 106,-126 106,-145"/>
<text text-anchor="middle" x="71" y="-133" font-family="Helvetica,sans-Serif" font-size="10.00">hash_table</text>
</a>
</g>
</g>
<!-- dir_68267d1309a1af8e8297ef4c3efbcdba&#45;&gt;dir_2d0f4cc7ed3c530a9d9d22c6d4bb40cc -->
<g id="edge2" class="edge">
<title>dir_68267d1309a1af8e8297ef4c3efbcdba&#45;&gt;dir_2d0f4cc7ed3c530a9d9d22c6d4bb40cc</title>
<g id="a_edge2"><a xlink:href="dir_000004_000002.html" target="_top">
<path fill="none" stroke="#63b8ff" d="M71,-180.75C71,-173.8 71,-163.85 71,-155.13"/>
<polygon fill="#63b8ff" stroke="#63b8ff" points="74.5,-155.09 71,-145.09 67.5,-155.09 74.5,-155.09"/>
</a>
</g>
<g id="a_edge2&#45;headlabel"><a xlink:href="dir_000004_000002.html" target="_top" xlink:title="1">
<text text-anchor="middle" x="77.34" y="-156.18" font-family="Helvetica,sans-Serif" font-size="10.00" fill="#63b8ff">1</text>
</a>
</g>
</g>
<!-- dir_668debc5fb7fe3ec0d2bf34d06948aa1 -->
<g id="node4" class="node">
<title>dir_668debc5fb7fe3ec0d2bf34d06948aa1</title>
<g id="a_node4"><a xlink:href="dir_668debc5fb7fe3ec0d2bf34d06948aa1.html" target="_top" xlink:title="interactive_mode">
<polygon fill="#a2b4d6" stroke="#404040" points="138,-90 36,-90 36,-71 138,-71 138,-90"/>
<text text-anchor="middle" x="87" y="-78" font-family="Helvetica,sans-Serif" font-size="10.00">interactive_mode</text>
</a>
</g>
</g>
<!-- dir_68267d1309a1af8e8297ef4c3efbcdba&#45;&gt;dir_668debc5fb7fe3ec0d2bf34d06948aa1 -->
<g id="edge3" class="edge">
<title>dir_68267d1309a1af8e8297ef4c3efbcdba&#45;&gt;dir_668debc5fb7fe3ec0d2bf34d06948aa1</title>
<g id="a_edge3"><a xlink:href="dir_000004_000003.html" target="_top">
<path fill="none" stroke="#63b8ff" d="M83.78,-181C94.39,-173.1 108.72,-160.27 115,-145 121.62,-128.88 111.83,-110.71 102.05,-97.95"/>
<polygon fill="#63b8ff" stroke="#63b8ff" points="104.57,-95.51 95.48,-90.07 99.2,-99.99 104.57,-95.51"/>
</a>
</g>
<g id="a_edge3&#45;headlabel"><a xlink:href="dir_000004_000003.html" target="_top" xlink:title="2">
<text text-anchor="middle" x="109.06" y="-93.96" font-family="Helvetica,sans-Serif" font-size="10.00" fill="#63b8ff">2</text>
</a>
</g>
</g>
<!-- dir_2d0f4cc7ed3c530a9d9d22c6d4bb40cc&#45;&gt;dir_668debc5fb7fe3ec0d2bf34d06948aa1 -->
<g id="edge4" class="edge">
<title>dir_2d0f4cc7ed3c530a9d9d22c6d4bb40cc&#45;&gt;dir_668debc5fb7fe3ec0d2bf34d06948aa1</title>
<g id="a_edge4"><a xlink:href="dir_000002_000003.html" target="_top">
<path fill="none" stroke="#63b8ff" d="M73.64,-125.75C75.76,-118.72 78.81,-108.62 81.46,-99.84"/>
<polygon fill="#63b8ff" stroke="#63b8ff" points="84.87,-100.67 84.41,-90.09 78.17,-98.65 84.87,-100.67"/>
</a>
</g>
<g id="a_edge4&#45;headlabel"><a xlink:href="dir_000002_000003.html" target="_top" xlink:title="1">
<text text-anchor="middle" x="86.55" y="-102.44" font-family="Helvetica,sans-Serif" font-size="10.00" fill="#63b8ff">1</text>
</a>
</g>
</g>
<!-- dir_668debc5fb7fe3ec0d2bf34d06948aa1&#45;&gt;dir_28fd4ee744d5c30ea598f5925cc2cfab -->
<g id="edge5" class="edge">
<title>dir_668debc5fb7fe3ec0d2bf34d06948aa1&#45;&gt;dir_28fd4ee744d5c30ea598f5925cc2cfab</title>
<g id="a_edge5"><a xlink:href="dir_000003_000001.html" target="_top">
<path fill="none" stroke="#63b8ff" d="M84.19,-70.75C81.94,-63.72 78.7,-53.62 75.88,-44.84"/>
<polygon fill="#63b8ff" stroke="#63b8ff" points="79.14,-43.54 72.75,-35.09 72.48,-45.68 79.14,-43.54"/>
</a>
</g>
<g id="a_edge5&#45;headlabel"><a xlink:href="dir_000003_000001.html" target="_top" xlink:title="2">
<text text-anchor="middle" x="82.94" y="-43.6" font-family="Helvetica,sans-Serif" font-size="10.00" fill="#63b8ff">2</text>
</a>
</g>
</g>
</g>
</svg>
