<?xml version="1.0" encoding="UTF-8" standalone="no"?>
<!DOCTYPE svg PUBLIC "-//W3C//DTD SVG 1.1//EN"
 "http://www.w3.org/Graphics/SVG/1.1/DTD/svg11.dtd">
<!-- Generated by graphviz version 2.43.0 (0)
 -->
<!-- Title: src/printf_color/fprintf_color.h Pages: 1 -->
<svg width="304pt" height="170pt"
 viewBox="0.00 0.00 303.50 170.00" xmlns="http://www.w3.org/2000/svg" xmlns:xlink="http://www.w3.org/1999/xlink">
<g id="graph0" class="graph" transform="scale(1 1) rotate(0) translate(4 166)">
<title>src/printf_color/fprintf_color.h</title>
<!-- Node1 -->
<g id="Node000001" class="node">
<title>Node1</title>
<g id="a_Node000001"><a xlink:title="Header file for fprintf_color() function.">
<polygon fill="#999999" stroke="#666666" points="216.5,-162 94.5,-162 94.5,-132 216.5,-132 216.5,-162"/>
<text text-anchor="start" x="102.5" y="-150" font-family="Helvetica,sans-Serif" font-size="10.00">src/printf_color/fprintf</text>
<text text-anchor="middle" x="155.5" y="-139" font-family="Helvetica,sans-Serif" font-size="10.00">_color.h</text>
</a>
</g>
</g>
<!-- Node2 -->
<g id="Node000002" class="node">
<title>Node2</title>
<g id="a_Node000002"><a xlink:href="argument__parser__internal_8h.html" target="_top" xlink:title="Argument parser internal API exposed for testing.">
<polygon fill="white" stroke="#666666" points="155,-96 0,-96 0,-66 155,-66 155,-96"/>
<text text-anchor="start" x="8" y="-84" font-family="Helvetica,sans-Serif" font-size="10.00">src/interactive_mode</text>
<text text-anchor="middle" x="77.5" y="-73" font-family="Helvetica,sans-Serif" font-size="10.00">/argument_parser_internal.h</text>
</a>
</g>
</g>
<!-- Node1&#45;&gt;Node2 -->
<g id="edge1_Node000001_Node000002" class="edge">
<title>Node1&#45;&gt;Node2</title>
<g id="a_edge1_Node000001_Node000002"><a xlink:title=" ">
<path fill="none" stroke="#63b8ff" d="M130.15,-125.2C118.57,-115.7 105.15,-104.69 94.76,-96.16"/>
<polygon fill="#63b8ff" stroke="#63b8ff" points="128.24,-128.16 138.19,-131.8 132.68,-122.75 128.24,-128.16"/>
</a>
</g>
</g>
<!-- Node4 -->
<g id="Node000004" class="node">
<title>Node4</title>
<g id="a_Node000004"><a xlink:href="fprintf__color_8c.html" target="_top" xlink:title="printf function with colored output using ANSI escape codes">
<polygon fill="white" stroke="#666666" points="295.5,-96 173.5,-96 173.5,-66 295.5,-66 295.5,-96"/>
<text text-anchor="start" x="181.5" y="-84" font-family="Helvetica,sans-Serif" font-size="10.00">src/printf_color/fprintf</text>
<text text-anchor="middle" x="234.5" y="-73" font-family="Helvetica,sans-Serif" font-size="10.00">_color.c</text>
</a>
</g>
</g>
<!-- Node1&#45;&gt;Node4 -->
<g id="edge3_Node000001_Node000004" class="edge">
<title>Node1&#45;&gt;Node4</title>
<g id="a_edge3_Node000001_Node000004"><a xlink:title=" ">
<path fill="none" stroke="#63b8ff" d="M180.83,-125.48C192.64,-115.91 206.39,-104.77 217.02,-96.16"/>
<polygon fill="#63b8ff" stroke="#63b8ff" points="178.6,-122.78 173.03,-131.8 183.01,-128.22 178.6,-122.78"/>
</a>
</g>
</g>
<!-- Node3 -->
<g id="Node000003" class="node">
<title>Node3</title>
<g id="a_Node000003"><a xlink:href="argument__parser_8c.html" target="_top" xlink:title="Argument parser API for interactive mode.">
<polygon fill="white" stroke="#666666" points="137,-30 18,-30 18,0 137,0 137,-30"/>
<text text-anchor="start" x="26" y="-18" font-family="Helvetica,sans-Serif" font-size="10.00">src/interactive_mode</text>
<text text-anchor="middle" x="77.5" y="-7" font-family="Helvetica,sans-Serif" font-size="10.00">/argument_parser.c</text>
</a>
</g>
</g>
<!-- Node2&#45;&gt;Node3 -->
<g id="edge2_Node000002_Node000003" class="edge">
<title>Node2&#45;&gt;Node3</title>
<g id="a_edge2_Node000002_Node000003"><a xlink:title=" ">
<path fill="none" stroke="#63b8ff" d="M77.5,-55.54C77.5,-46.96 77.5,-37.61 77.5,-30.16"/>
<polygon fill="#63b8ff" stroke="#63b8ff" points="74,-55.8 77.5,-65.8 81,-55.8 74,-55.8"/>
</a>
</g>
</g>
</g>
</svg>
