<?xml version="1.0" encoding="UTF-8" standalone="no"?>
<!DOCTYPE svg PUBLIC "-//W3C//DTD SVG 1.1//EN"
 "http://www.w3.org/Graphics/SVG/1.1/DTD/svg11.dtd">
<!-- Generated by graphviz version 2.43.0 (0)
 -->
<!-- Title: src/fprintf_color/fprintf_color.h Pages: 1 -->
<svg width="392pt" height="236pt"
 viewBox="0.00 0.00 391.50 236.00" xmlns="http://www.w3.org/2000/svg" xmlns:xlink="http://www.w3.org/1999/xlink">
<g id="graph0" class="graph" transform="scale(1 1) rotate(0) translate(4 232)">
<title>src/fprintf_color/fprintf_color.h</title>
<!-- Node1 -->
<g id="Node000001" class="node">
<title>Node1</title>
<g id="a_Node000001"><a xlink:title="Header file for fprintf_color() function.">
<polygon fill="#999999" stroke="#666666" points="261,-228 135,-228 135,-198 261,-198 261,-228"/>
<text text-anchor="start" x="143" y="-216" font-family="Helvetica,sans-Serif" font-size="10.00">src/fprintf_color/fprintf</text>
<text text-anchor="middle" x="198" y="-205" font-family="Helvetica,sans-Serif" font-size="10.00">_color.h</text>
</a>
</g>
</g>
<!-- Node2 -->
<g id="Node000002" class="node">
<title>Node2</title>
<g id="a_Node000002"><a xlink:href="fprintf__color_8c.html" target="_top" xlink:title="printf function with colored output using ANSI escape codes">
<polygon fill="white" stroke="#666666" points="126,-162 0,-162 0,-132 126,-132 126,-162"/>
<text text-anchor="start" x="8" y="-150" font-family="Helvetica,sans-Serif" font-size="10.00">src/fprintf_color/fprintf</text>
<text text-anchor="middle" x="63" y="-139" font-family="Helvetica,sans-Serif" font-size="10.00">_color.c</text>
</a>
</g>
</g>
<!-- Node1&#45;&gt;Node2 -->
<g id="edge1_Node000001_Node000002" class="edge">
<title>Node1&#45;&gt;Node2</title>
<g id="a_edge1_Node000001_Node000002"><a xlink:title=" ">
<path fill="none" stroke="#63b8ff" d="M159.29,-193.65C138.06,-183.58 112.15,-171.3 92.56,-162.01"/>
<polygon fill="#63b8ff" stroke="#63b8ff" points="157.84,-196.83 168.37,-197.95 160.84,-190.51 157.84,-196.83"/>
</a>
</g>
</g>
<!-- Node3 -->
<g id="Node000003" class="node">
<title>Node3</title>
<g id="a_Node000003"><a xlink:href="argument__parser__internal_8h.html" target="_top" xlink:title="Argument parser internal API exposed for testing.">
<polygon fill="white" stroke="#666666" points="167.5,-96 12.5,-96 12.5,-66 167.5,-66 167.5,-96"/>
<text text-anchor="start" x="20.5" y="-84" font-family="Helvetica,sans-Serif" font-size="10.00">src/interactive_mode</text>
<text text-anchor="middle" x="90" y="-73" font-family="Helvetica,sans-Serif" font-size="10.00">/argument_parser_internal.h</text>
</a>
</g>
</g>
<!-- Node1&#45;&gt;Node3 -->
<g id="edge2_Node000001_Node000003" class="edge">
<title>Node1&#45;&gt;Node3</title>
<g id="a_edge2_Node000001_Node000003"><a xlink:title=" ">
<path fill="none" stroke="#63b8ff" d="M180.98,-189.58C168.51,-173.37 151.05,-151.05 135,-132 124.62,-119.67 112.35,-106.11 103.25,-96.22"/>
<polygon fill="#63b8ff" stroke="#63b8ff" points="178.49,-192.09 187.35,-197.9 184.05,-187.84 178.49,-192.09"/>
</a>
</g>
</g>
<!-- Node5 -->
<g id="Node000005" class="node">
<title>Node5</title>
<g id="a_Node000005"><a xlink:href="interactive__mode_8h.html" target="_top" xlink:title="Argument parser API for interactive mode.">
<polygon fill="white" stroke="#666666" points="301.5,-162 182.5,-162 182.5,-132 301.5,-132 301.5,-162"/>
<text text-anchor="start" x="190.5" y="-150" font-family="Helvetica,sans-Serif" font-size="10.00">src/interactive_mode</text>
<text text-anchor="middle" x="242" y="-139" font-family="Helvetica,sans-Serif" font-size="10.00">/interactive_mode.h</text>
</a>
</g>
</g>
<!-- Node1&#45;&gt;Node5 -->
<g id="edge4_Node000001_Node000005" class="edge">
<title>Node1&#45;&gt;Node5</title>
<g id="a_edge4_Node000001_Node000005"><a xlink:title=" ">
<path fill="none" stroke="#63b8ff" d="M213.45,-189.53C219.71,-180.43 226.74,-170.19 232.26,-162.16"/>
<polygon fill="#63b8ff" stroke="#63b8ff" points="210.55,-187.57 207.77,-197.8 216.31,-191.54 210.55,-187.57"/>
</a>
</g>
</g>
<!-- Node7 -->
<g id="Node000007" class="node">
<title>Node7</title>
<g id="a_Node000007"><a xlink:href="main_8c.html" target="_top" xlink:title="Interactive program to play with the HashTable.">
<polygon fill="white" stroke="#666666" points="383.5,-90.5 316.5,-90.5 316.5,-71.5 383.5,-71.5 383.5,-90.5"/>
<text text-anchor="middle" x="350" y="-78.5" font-family="Helvetica,sans-Serif" font-size="10.00">src/main.c</text>
</a>
</g>
</g>
<!-- Node1&#45;&gt;Node7 -->
<g id="edge8_Node000001_Node000007" class="edge">
<title>Node1&#45;&gt;Node7</title>
<g id="a_edge8_Node000001_Node000007"><a xlink:title=" ">
<path fill="none" stroke="#63b8ff" d="M258.73,-194.21C277.17,-186.57 296.4,-176.07 311,-162 332.36,-141.41 343.62,-106.71 347.91,-90.64"/>
<polygon fill="#63b8ff" stroke="#63b8ff" points="257.22,-191.04 249.19,-197.95 259.77,-197.56 257.22,-191.04"/>
</a>
</g>
</g>
<!-- Node4 -->
<g id="Node000004" class="node">
<title>Node4</title>
<g id="a_Node000004"><a xlink:href="argument__parser_8c.html" target="_top" xlink:title="Argument parser API for interactive mode.">
<polygon fill="white" stroke="#666666" points="149.5,-30 30.5,-30 30.5,0 149.5,0 149.5,-30"/>
<text text-anchor="start" x="38.5" y="-18" font-family="Helvetica,sans-Serif" font-size="10.00">src/interactive_mode</text>
<text text-anchor="middle" x="90" y="-7" font-family="Helvetica,sans-Serif" font-size="10.00">/argument_parser.c</text>
</a>
</g>
</g>
<!-- Node3&#45;&gt;Node4 -->
<g id="edge3_Node000003_Node000004" class="edge">
<title>Node3&#45;&gt;Node4</title>
<g id="a_edge3_Node000003_Node000004"><a xlink:title=" ">
<path fill="none" stroke="#63b8ff" d="M90,-55.54C90,-46.96 90,-37.61 90,-30.16"/>
<polygon fill="#63b8ff" stroke="#63b8ff" points="86.5,-55.8 90,-65.8 93.5,-55.8 86.5,-55.8"/>
</a>
</g>
</g>
<!-- Node5&#45;&gt;Node3 -->
<g id="edge6_Node000005_Node000003" class="edge">
<title>Node5&#45;&gt;Node3</title>
<g id="a_edge6_Node000005_Node000003"><a xlink:title=" ">
<path fill="none" stroke="#63b8ff" d="M199.38,-128.05C175.3,-117.91 145.64,-105.43 123.28,-96.01"/>
<polygon fill="#63b8ff" stroke="#63b8ff" points="198.07,-131.3 208.64,-131.95 200.78,-124.85 198.07,-131.3"/>
</a>
</g>
</g>
<!-- Node6 -->
<g id="Node000006" class="node">
<title>Node6</title>
<g id="a_Node000006"><a xlink:href="hash__table__io_8c.html" target="_top" xlink:title="Persistence and print methods for HashTable.">
<polygon fill="white" stroke="#666666" points="298.5,-96 185.5,-96 185.5,-66 298.5,-66 298.5,-96"/>
<text text-anchor="start" x="193.5" y="-84" font-family="Helvetica,sans-Serif" font-size="10.00">src/hash_table/hash</text>
<text text-anchor="middle" x="242" y="-73" font-family="Helvetica,sans-Serif" font-size="10.00">_table_io.c</text>
</a>
</g>
</g>
<!-- Node5&#45;&gt;Node6 -->
<g id="edge5_Node000005_Node000006" class="edge">
<title>Node5&#45;&gt;Node6</title>
<g id="a_edge5_Node000005_Node000006"><a xlink:title=" ">
<path fill="none" stroke="#63b8ff" d="M242,-121.54C242,-112.96 242,-103.61 242,-96.16"/>
<polygon fill="#63b8ff" stroke="#63b8ff" points="238.5,-121.8 242,-131.8 245.5,-121.8 238.5,-121.8"/>
</a>
</g>
</g>
<!-- Node5&#45;&gt;Node7 -->
<g id="edge7_Node000005_Node000007" class="edge">
<title>Node5&#45;&gt;Node7</title>
<g id="a_edge7_Node000005_Node000007"><a xlink:title=" ">
<path fill="none" stroke="#63b8ff" d="M274.38,-126.81C294.77,-114.73 320.07,-99.73 335.63,-90.52"/>
<polygon fill="#63b8ff" stroke="#63b8ff" points="272.52,-123.85 265.7,-131.95 276.09,-129.87 272.52,-123.85"/>
</a>
</g>
</g>
</g>
</svg>
