<?xml version="1.0" encoding="UTF-8" standalone="no"?>
<!DOCTYPE svg PUBLIC "-//W3C//DTD SVG 1.1//EN"
 "http://www.w3.org/Graphics/SVG/1.1/DTD/svg11.dtd">
<!-- Generated by graphviz version 2.43.0 (0)
 -->
<!-- Title: src/hash_table/hash_table_resize.c Pages: 1 -->
<svg width="422pt" height="203pt"
 viewBox="0.00 0.00 421.50 203.00" xmlns="http://www.w3.org/2000/svg" xmlns:xlink="http://www.w3.org/1999/xlink">
<g id="graph0" class="graph" transform="scale(1 1) rotate(0) translate(4 199)">
<title>src/hash_table/hash_table_resize.c</title>
<!-- Node1 -->
<g id="Node000001" class="node">
<title>Node1</title>
<g id="a_Node000001"><a xlink:title="Internal methods for creating and resizing a HashTable.">
<polygon fill="#999999" stroke="#666666" points="182,-195 69,-195 69,-165 182,-165 182,-195"/>
<text text-anchor="start" x="77" y="-183" font-family="Helvetica,sans-Serif" font-size="10.00">src/hash_table/hash</text>
<text text-anchor="middle" x="125.5" y="-172" font-family="Helvetica,sans-Serif" font-size="10.00">_table_resize.c</text>
</a>
</g>
</g>
<!-- Node2 -->
<g id="Node000002" class="node">
<title>Node2</title>
<g id="a_Node000002"><a xlink:title=" ">
<polygon fill="#e0e0e0" stroke="#999999" points="53,-129 0,-129 0,-110 53,-110 53,-129"/>
<text text-anchor="middle" x="26.5" y="-117" font-family="Helvetica,sans-Serif" font-size="10.00">stdlib.h</text>
</a>
</g>
</g>
<!-- Node1&#45;&gt;Node2 -->
<g id="edge1_Node000001_Node000002" class="edge">
<title>Node1&#45;&gt;Node2</title>
<g id="a_edge1_Node000001_Node000002"><a xlink:title=" ">
<path fill="none" stroke="#63b8ff" d="M101.79,-164.99C86.15,-155.75 65.76,-143.7 50.14,-134.47"/>
<polygon fill="#63b8ff" stroke="#63b8ff" points="51.51,-131.21 41.12,-129.14 47.95,-137.24 51.51,-131.21"/>
</a>
</g>
</g>
<!-- Node3 -->
<g id="Node000003" class="node">
<title>Node3</title>
<g id="a_Node000003"><a xlink:href="hash__table_8h.html" target="_top" xlink:title="Public API for HashTable.">
<polygon fill="white" stroke="#666666" points="123,-74 44,-74 44,-55 123,-55 123,-74"/>
<text text-anchor="middle" x="83.5" y="-62" font-family="Helvetica,sans-Serif" font-size="10.00">hash_table.h</text>
</a>
</g>
</g>
<!-- Node1&#45;&gt;Node3 -->
<g id="edge2_Node000001_Node000003" class="edge">
<title>Node1&#45;&gt;Node3</title>
<g id="a_edge2_Node000001_Node000003"><a xlink:title=" ">
<path fill="none" stroke="#63b8ff" d="M117.49,-164.91C112.14,-155.07 105.25,-141.52 100.5,-129 94.93,-114.31 90.43,-97.06 87.47,-84.24"/>
<polygon fill="#63b8ff" stroke="#63b8ff" points="90.84,-83.31 85.27,-74.3 84.01,-84.82 90.84,-83.31"/>
</a>
</g>
</g>
<!-- Node5 -->
<g id="Node000005" class="node">
<title>Node5</title>
<g id="a_Node000005"><a xlink:href="hash__table__internal_8h.html" target="_top" xlink:title="Internal HashTable API and utilities.">
<polygon fill="white" stroke="#666666" points="231.5,-129 109.5,-129 109.5,-110 231.5,-110 231.5,-129"/>
<text text-anchor="middle" x="170.5" y="-117" font-family="Helvetica,sans-Serif" font-size="10.00">hash_table_internal.h</text>
</a>
</g>
</g>
<!-- Node1&#45;&gt;Node5 -->
<g id="edge4_Node000001_Node000005" class="edge">
<title>Node1&#45;&gt;Node5</title>
<g id="a_edge4_Node000001_Node000005"><a xlink:title=" ">
<path fill="none" stroke="#63b8ff" d="M136.39,-164.84C142.79,-156.52 150.92,-145.96 157.63,-137.23"/>
<polygon fill="#63b8ff" stroke="#63b8ff" points="160.43,-139.33 163.76,-129.27 154.89,-135.06 160.43,-139.33"/>
</a>
</g>
</g>
<!-- Node7 -->
<g id="Node000007" class="node">
<title>Node7</title>
<g id="a_Node000007"><a xlink:title=" ">
<polygon fill="#e0e0e0" stroke="#999999" points="413.5,-129 249.5,-129 249.5,-110 413.5,-110 413.5,-129"/>
<text text-anchor="middle" x="331.5" y="-117" font-family="Helvetica,sans-Serif" font-size="10.00">../debugmalloc/debugmalloc.h</text>
</a>
</g>
</g>
<!-- Node1&#45;&gt;Node7 -->
<g id="edge7_Node000001_Node000007" class="edge">
<title>Node1&#45;&gt;Node7</title>
<g id="a_edge7_Node000001_Node000007"><a xlink:title=" ">
<path fill="none" stroke="#63b8ff" d="M174.84,-164.99C210.55,-154.85 258.19,-141.32 291.52,-131.85"/>
<polygon fill="#63b8ff" stroke="#63b8ff" points="292.72,-135.15 301.38,-129.05 290.8,-128.42 292.72,-135.15"/>
</a>
</g>
</g>
<!-- Node4 -->
<g id="Node000004" class="node">
<title>Node4</title>
<g id="a_Node000004"><a xlink:title=" ">
<polygon fill="#e0e0e0" stroke="#999999" points="114.5,-19 52.5,-19 52.5,0 114.5,0 114.5,-19"/>
<text text-anchor="middle" x="83.5" y="-7" font-family="Helvetica,sans-Serif" font-size="10.00">stdbool.h</text>
</a>
</g>
</g>
<!-- Node3&#45;&gt;Node4 -->
<g id="edge3_Node000003_Node000004" class="edge">
<title>Node3&#45;&gt;Node4</title>
<g id="a_edge3_Node000003_Node000004"><a xlink:title=" ">
<path fill="none" stroke="#63b8ff" d="M83.5,-54.75C83.5,-47.8 83.5,-37.85 83.5,-29.13"/>
<polygon fill="#63b8ff" stroke="#63b8ff" points="87,-29.09 83.5,-19.09 80,-29.09 87,-29.09"/>
</a>
</g>
</g>
<!-- Node5&#45;&gt;Node3 -->
<g id="edge6_Node000005_Node000003" class="edge">
<title>Node5&#45;&gt;Node3</title>
<g id="a_edge6_Node000005_Node000003"><a xlink:title=" ">
<path fill="none" stroke="#63b8ff" d="M156.52,-109.98C143.03,-101.77 122.37,-89.18 106.46,-79.49"/>
<polygon fill="#63b8ff" stroke="#63b8ff" points="108.09,-76.38 97.73,-74.17 104.45,-82.36 108.09,-76.38"/>
</a>
</g>
</g>
<!-- Node6 -->
<g id="Node000006" class="node">
<title>Node6</title>
<g id="a_Node000006"><a xlink:title=" ">
<polygon fill="#e0e0e0" stroke="#999999" points="198.5,-74 142.5,-74 142.5,-55 198.5,-55 198.5,-74"/>
<text text-anchor="middle" x="170.5" y="-62" font-family="Helvetica,sans-Serif" font-size="10.00">stddef.h</text>
</a>
</g>
</g>
<!-- Node5&#45;&gt;Node6 -->
<g id="edge5_Node000005_Node000006" class="edge">
<title>Node5&#45;&gt;Node6</title>
<g id="a_edge5_Node000005_Node000006"><a xlink:title=" ">
<path fill="none" stroke="#63b8ff" d="M170.5,-109.75C170.5,-102.8 170.5,-92.85 170.5,-84.13"/>
<polygon fill="#63b8ff" stroke="#63b8ff" points="174,-84.09 170.5,-74.09 167,-84.09 174,-84.09"/>
</a>
</g>
</g>
</g>
</svg>
