<?xml version="1.0" encoding="UTF-8" standalone="no"?>
<!DOCTYPE svg PUBLIC "-//W3C//DTD SVG 1.1//EN"
 "http://www.w3.org/Graphics/SVG/1.1/DTD/svg11.dtd">
<!-- Generated by graphviz version 2.43.0 (0)
 -->
<!-- Title: src/hash_table/hash_table_io.c Pages: 1 -->
<svg width="236pt" height="203pt"
 viewBox="0.00 0.00 236.00 203.00" xmlns="http://www.w3.org/2000/svg" xmlns:xlink="http://www.w3.org/1999/xlink">
<g id="graph0" class="graph" transform="scale(1 1) rotate(0) translate(4 199)">
<title>src/hash_table/hash_table_io.c</title>
<!-- Node1 -->
<g id="Node000001" class="node">
<title>Node1</title>
<g id="a_Node000001"><a xlink:title="Persistence and print methods for HashTable.">
<polygon fill="#999999" stroke="#666666" points="134.5,-195 21.5,-195 21.5,-165 134.5,-165 134.5,-195"/>
<text text-anchor="start" x="29.5" y="-183" font-family="Helvetica,sans-Serif" font-size="10.00">src/hash_table/hash</text>
<text text-anchor="middle" x="78" y="-172" font-family="Helvetica,sans-Serif" font-size="10.00">_table_io.c</text>
</a>
</g>
</g>
<!-- Node2 -->
<g id="Node000002" class="node">
<title>Node2</title>
<g id="a_Node000002"><a xlink:title=" ">
<polygon fill="#e0e0e0" stroke="#999999" points="50,-129 0,-129 0,-110 50,-110 50,-129"/>
<text text-anchor="middle" x="25" y="-117" font-family="Helvetica,sans-Serif" font-size="10.00">stdio.h</text>
</a>
</g>
</g>
<!-- Node1&#45;&gt;Node2 -->
<g id="edge1_Node000001_Node000002" class="edge">
<title>Node1&#45;&gt;Node2</title>
<g id="a_edge1_Node000001_Node000002"><a xlink:title=" ">
<path fill="none" stroke="#63b8ff" d="M65.17,-164.84C57.48,-156.35 47.67,-145.52 39.67,-136.69"/>
<polygon fill="#63b8ff" stroke="#63b8ff" points="42.25,-134.33 32.94,-129.27 37.06,-139.03 42.25,-134.33"/>
</a>
</g>
</g>
<!-- Node3 -->
<g id="Node000003" class="node">
<title>Node3</title>
<g id="a_Node000003"><a xlink:href="hash__table_8h.html" target="_top" xlink:title="Public API for HashTable.">
<polygon fill="white" stroke="#666666" points="119.5,-74 40.5,-74 40.5,-55 119.5,-55 119.5,-74"/>
<text text-anchor="middle" x="80" y="-62" font-family="Helvetica,sans-Serif" font-size="10.00">hash_table.h</text>
</a>
</g>
</g>
<!-- Node1&#45;&gt;Node3 -->
<g id="edge2_Node000001_Node000003" class="edge">
<title>Node1&#45;&gt;Node3</title>
<g id="a_edge2_Node000001_Node000003"><a xlink:title=" ">
<path fill="none" stroke="#63b8ff" d="M78.25,-164.63C78.61,-144.21 79.27,-106.81 79.67,-84.24"/>
<polygon fill="#63b8ff" stroke="#63b8ff" points="83.17,-84.29 79.85,-74.23 76.17,-84.17 83.17,-84.29"/>
</a>
</g>
</g>
<!-- Node5 -->
<g id="Node000005" class="node">
<title>Node5</title>
<g id="a_Node000005"><a xlink:href="hash__table__internal_8h.html" target="_top" xlink:title="Internal HashTable API and utilities.">
<polygon fill="white" stroke="#666666" points="228,-129 106,-129 106,-110 228,-110 228,-129"/>
<text text-anchor="middle" x="167" y="-117" font-family="Helvetica,sans-Serif" font-size="10.00">hash_table_internal.h</text>
</a>
</g>
</g>
<!-- Node1&#45;&gt;Node5 -->
<g id="edge4_Node000001_Node000005" class="edge">
<title>Node1&#45;&gt;Node5</title>
<g id="a_edge4_Node000001_Node000005"><a xlink:title=" ">
<path fill="none" stroke="#63b8ff" d="M99.54,-164.84C113.47,-155.68 131.53,-143.82 145.45,-134.66"/>
<polygon fill="#63b8ff" stroke="#63b8ff" points="147.49,-137.51 153.92,-129.09 143.65,-131.66 147.49,-137.51"/>
</a>
</g>
</g>
<!-- Node4 -->
<g id="Node000004" class="node">
<title>Node4</title>
<g id="a_Node000004"><a xlink:title=" ">
<polygon fill="#e0e0e0" stroke="#999999" points="111,-19 49,-19 49,0 111,0 111,-19"/>
<text text-anchor="middle" x="80" y="-7" font-family="Helvetica,sans-Serif" font-size="10.00">stdbool.h</text>
</a>
</g>
</g>
<!-- Node3&#45;&gt;Node4 -->
<g id="edge3_Node000003_Node000004" class="edge">
<title>Node3&#45;&gt;Node4</title>
<g id="a_edge3_Node000003_Node000004"><a xlink:title=" ">
<path fill="none" stroke="#63b8ff" d="M80,-54.75C80,-47.8 80,-37.85 80,-29.13"/>
<polygon fill="#63b8ff" stroke="#63b8ff" points="83.5,-29.09 80,-19.09 76.5,-29.09 83.5,-29.09"/>
</a>
</g>
</g>
<!-- Node5&#45;&gt;Node3 -->
<g id="edge6_Node000005_Node000003" class="edge">
<title>Node5&#45;&gt;Node3</title>
<g id="a_edge6_Node000005_Node000003"><a xlink:title=" ">
<path fill="none" stroke="#63b8ff" d="M153.02,-109.98C139.53,-101.77 118.87,-89.18 102.96,-79.49"/>
<polygon fill="#63b8ff" stroke="#63b8ff" points="104.59,-76.38 94.23,-74.17 100.95,-82.36 104.59,-76.38"/>
</a>
</g>
</g>
<!-- Node6 -->
<g id="Node000006" class="node">
<title>Node6</title>
<g id="a_Node000006"><a xlink:title=" ">
<polygon fill="#e0e0e0" stroke="#999999" points="195,-74 139,-74 139,-55 195,-55 195,-74"/>
<text text-anchor="middle" x="167" y="-62" font-family="Helvetica,sans-Serif" font-size="10.00">stddef.h</text>
</a>
</g>
</g>
<!-- Node5&#45;&gt;Node6 -->
<g id="edge5_Node000005_Node000006" class="edge">
<title>Node5&#45;&gt;Node6</title>
<g id="a_edge5_Node000005_Node000006"><a xlink:title=" ">
<path fill="none" stroke="#63b8ff" d="M167,-109.75C167,-102.8 167,-92.85 167,-84.13"/>
<polygon fill="#63b8ff" stroke="#63b8ff" points="170.5,-84.09 167,-74.09 163.5,-84.09 170.5,-84.09"/>
</a>
</g>
</g>
</g>
</svg>
