<?xml version="1.0" encoding="UTF-8" standalone="no"?>
<!DOCTYPE svg PUBLIC "-//W3C//DTD SVG 1.1//EN"
 "http://www.w3.org/Graphics/SVG/1.1/DTD/svg11.dtd">
<!-- Generated by graphviz version 2.43.0 (0)
 -->
<!-- Title: src/hash_table/hash_table_io.c Pages: 1 -->
<svg width="472pt" height="225pt"
 viewBox="0.00 0.00 472.00 225.00" xmlns="http://www.w3.org/2000/svg" xmlns:xlink="http://www.w3.org/1999/xlink">
<g id="graph0" class="graph" transform="scale(1 1) rotate(0) translate(4 221)">
<title>src/hash_table/hash_table_io.c</title>
<!-- Node1 -->
<g id="Node000001" class="node">
<title>Node1</title>
<g id="a_Node000001"><a xlink:title="Persistence and print methods for HashTable.">
<polygon fill="#999999" stroke="#666666" points="236.5,-217 123.5,-217 123.5,-187 236.5,-187 236.5,-217"/>
<text text-anchor="start" x="131.5" y="-205" font-family="Helvetica,sans-Serif" font-size="10.00">src/hash_table/hash</text>
<text text-anchor="middle" x="180" y="-194" font-family="Helvetica,sans-Serif" font-size="10.00">_table_io.c</text>
</a>
</g>
</g>
<!-- Node2 -->
<g id="Node000002" class="node">
<title>Node2</title>
<g id="a_Node000002"><a xlink:title=" ">
<polygon fill="#e0e0e0" stroke="#999999" points="50,-145.5 0,-145.5 0,-126.5 50,-126.5 50,-145.5"/>
<text text-anchor="middle" x="25" y="-133.5" font-family="Helvetica,sans-Serif" font-size="10.00">stdio.h</text>
</a>
</g>
</g>
<!-- Node1&#45;&gt;Node2 -->
<g id="edge1_Node000001_Node000002" class="edge">
<title>Node1&#45;&gt;Node2</title>
<g id="a_edge1_Node000001_Node000002"><a xlink:title=" ">
<path fill="none" stroke="#63b8ff" d="M145.98,-186.95C118.8,-175.73 81.07,-160.15 55,-149.39"/>
<polygon fill="#63b8ff" stroke="#63b8ff" points="56.21,-146.1 45.63,-145.52 53.54,-152.57 56.21,-146.1"/>
</a>
</g>
</g>
<!-- Node3 -->
<g id="Node000003" class="node">
<title>Node3</title>
<g id="a_Node000003"><a xlink:title=" ">
<polygon fill="#e0e0e0" stroke="#999999" points="151.5,-145.5 68.5,-145.5 68.5,-126.5 151.5,-126.5 151.5,-145.5"/>
<text text-anchor="middle" x="110" y="-133.5" font-family="Helvetica,sans-Serif" font-size="10.00">mach/mach.h</text>
</a>
</g>
</g>
<!-- Node1&#45;&gt;Node3 -->
<g id="edge2_Node000001_Node000003" class="edge">
<title>Node1&#45;&gt;Node3</title>
<g id="a_edge2_Node000001_Node000003"><a xlink:title=" ">
<path fill="none" stroke="#63b8ff" d="M164.46,-186.8C153.44,-176.72 138.65,-163.19 127.26,-152.78"/>
<polygon fill="#63b8ff" stroke="#63b8ff" points="129.42,-150.01 119.67,-145.84 124.69,-155.18 129.42,-150.01"/>
</a>
</g>
</g>
<!-- Node4 -->
<g id="Node000004" class="node">
<title>Node4</title>
<g id="a_Node000004"><a xlink:href="hash__table_8h.html" target="_top" xlink:title="Public API for HashTable.">
<polygon fill="white" stroke="#666666" points="221.5,-79.5 142.5,-79.5 142.5,-60.5 221.5,-60.5 221.5,-79.5"/>
<text text-anchor="middle" x="182" y="-67.5" font-family="Helvetica,sans-Serif" font-size="10.00">hash_table.h</text>
</a>
</g>
</g>
<!-- Node1&#45;&gt;Node4 -->
<g id="edge3_Node000001_Node000004" class="edge">
<title>Node1&#45;&gt;Node4</title>
<g id="a_edge3_Node000001_Node000004"><a xlink:title=" ">
<path fill="none" stroke="#63b8ff" d="M180.22,-186.84C180.58,-163.34 181.3,-116.26 181.71,-89.93"/>
<polygon fill="#63b8ff" stroke="#63b8ff" points="185.21,-89.8 181.87,-79.75 178.21,-89.69 185.21,-89.8"/>
</a>
</g>
</g>
<!-- Node6 -->
<g id="Node000006" class="node">
<title>Node6</title>
<g id="a_Node000006"><a xlink:href="hash__table__internal_8h.html" target="_top" xlink:title="Internal HashTable API and utilities.">
<polygon fill="white" stroke="#666666" points="330,-145.5 208,-145.5 208,-126.5 330,-126.5 330,-145.5"/>
<text text-anchor="middle" x="269" y="-133.5" font-family="Helvetica,sans-Serif" font-size="10.00">hash_table_internal.h</text>
</a>
</g>
</g>
<!-- Node1&#45;&gt;Node6 -->
<g id="edge5_Node000001_Node000006" class="edge">
<title>Node1&#45;&gt;Node6</title>
<g id="a_edge5_Node000001_Node000006"><a xlink:title=" ">
<path fill="none" stroke="#63b8ff" d="M199.75,-186.8C214.26,-176.37 233.9,-162.24 248.56,-151.69"/>
<polygon fill="#63b8ff" stroke="#63b8ff" points="250.88,-154.34 256.96,-145.66 246.8,-148.66 250.88,-154.34"/>
</a>
</g>
</g>
<!-- Node8 -->
<g id="Node000008" class="node">
<title>Node8</title>
<g id="a_Node000008"><a xlink:href="interactive__mode_8h.html" target="_top" xlink:title="Argument parser API for interactive mode.">
<polygon fill="white" stroke="#666666" points="462,-151 348,-151 348,-121 462,-121 462,-151"/>
<text text-anchor="start" x="356" y="-139" font-family="Helvetica,sans-Serif" font-size="10.00">../interactive_mode</text>
<text text-anchor="middle" x="405" y="-128" font-family="Helvetica,sans-Serif" font-size="10.00">/interactive_mode.h</text>
</a>
</g>
</g>
<!-- Node1&#45;&gt;Node8 -->
<g id="edge8_Node000001_Node000008" class="edge">
<title>Node1&#45;&gt;Node8</title>
<g id="a_edge8_Node000001_Node000008"><a xlink:title=" ">
<path fill="none" stroke="#63b8ff" d="M229.38,-186.95C263.67,-177.2 309.53,-164.16 345.78,-153.84"/>
<polygon fill="#63b8ff" stroke="#63b8ff" points="347.08,-157.11 355.74,-151.01 345.16,-150.38 347.08,-157.11"/>
</a>
</g>
</g>
<!-- Node5 -->
<g id="Node000005" class="node">
<title>Node5</title>
<g id="a_Node000005"><a xlink:title=" ">
<polygon fill="#e0e0e0" stroke="#999999" points="213,-19 151,-19 151,0 213,0 213,-19"/>
<text text-anchor="middle" x="182" y="-7" font-family="Helvetica,sans-Serif" font-size="10.00">stdbool.h</text>
</a>
</g>
</g>
<!-- Node4&#45;&gt;Node5 -->
<g id="edge4_Node000004_Node000005" class="edge">
<title>Node4&#45;&gt;Node5</title>
<g id="a_edge4_Node000004_Node000005"><a xlink:title=" ">
<path fill="none" stroke="#63b8ff" d="M182,-60.37C182,-52.25 182,-39.81 182,-29.39"/>
<polygon fill="#63b8ff" stroke="#63b8ff" points="185.5,-29.17 182,-19.17 178.5,-29.17 185.5,-29.17"/>
</a>
</g>
</g>
<!-- Node6&#45;&gt;Node4 -->
<g id="edge7_Node000006_Node000004" class="edge">
<title>Node6&#45;&gt;Node4</title>
<g id="a_edge7_Node000006_Node000004"><a xlink:title=" ">
<path fill="none" stroke="#63b8ff" d="M257.27,-126.37C243.13,-115.97 219.14,-98.32 202.05,-85.75"/>
<polygon fill="#63b8ff" stroke="#63b8ff" points="203.95,-82.81 193.83,-79.7 199.81,-88.44 203.95,-82.81"/>
</a>
</g>
</g>
<!-- Node7 -->
<g id="Node000007" class="node">
<title>Node7</title>
<g id="a_Node000007"><a xlink:title=" ">
<polygon fill="#e0e0e0" stroke="#999999" points="297,-79.5 241,-79.5 241,-60.5 297,-60.5 297,-79.5"/>
<text text-anchor="middle" x="269" y="-67.5" font-family="Helvetica,sans-Serif" font-size="10.00">stddef.h</text>
</a>
</g>
</g>
<!-- Node6&#45;&gt;Node7 -->
<g id="edge6_Node000006_Node000007" class="edge">
<title>Node6&#45;&gt;Node7</title>
<g id="a_edge6_Node000006_Node000007"><a xlink:title=" ">
<path fill="none" stroke="#63b8ff" d="M269,-126.37C269,-117.16 269,-102.29 269,-90.27"/>
<polygon fill="#63b8ff" stroke="#63b8ff" points="272.5,-89.91 269,-79.91 265.5,-89.91 272.5,-89.91"/>
</a>
</g>
</g>
<!-- Node9 -->
<g id="Node000009" class="node">
<title>Node9</title>
<g id="a_Node000009"><a xlink:href="fprintf__color_8h.html" target="_top" xlink:title="Header file for fprintf_color() function.">
<polygon fill="white" stroke="#666666" points="464,-85 346,-85 346,-55 464,-55 464,-85"/>
<text text-anchor="start" x="354" y="-73" font-family="Helvetica,sans-Serif" font-size="10.00">../fprintf_color/fprintf</text>
<text text-anchor="middle" x="405" y="-62" font-family="Helvetica,sans-Serif" font-size="10.00">_color.h</text>
</a>
</g>
</g>
<!-- Node8&#45;&gt;Node9 -->
<g id="edge9_Node000008_Node000009" class="edge">
<title>Node8&#45;&gt;Node9</title>
<g id="a_edge9_Node000008_Node000009"><a xlink:title=" ">
<path fill="none" stroke="#63b8ff" d="M405,-120.8C405,-113.34 405,-103.99 405,-95.41"/>
<polygon fill="#63b8ff" stroke="#63b8ff" points="408.5,-95.16 405,-85.16 401.5,-95.16 408.5,-95.16"/>
</a>
</g>
</g>
</g>
</svg>
