<?xml version="1.0" encoding="UTF-8" standalone="no"?>
<!DOCTYPE svg PUBLIC "-//W3C//DTD SVG 1.1//EN"
 "http://www.w3.org/Graphics/SVG/1.1/DTD/svg11.dtd">
<!-- Generated by graphviz version 2.43.0 (0)
 -->
<!-- Title: src/hash_table_utils.c Pages: 1 -->
<svg width="366pt" height="192pt"
 viewBox="0.00 0.00 365.50 192.00" xmlns="http://www.w3.org/2000/svg" xmlns:xlink="http://www.w3.org/1999/xlink">
<g id="graph0" class="graph" transform="scale(1 1) rotate(0) translate(4 188)">
<title>src/hash_table_utils.c</title>
<!-- Node1 -->
<g id="Node000001" class="node">
<title>Node1</title>
<g id="a_Node000001"><a xlink:title="Internal utility functions for HashTable.">
<polygon fill="#999999" stroke="#666666" points="193,-184 71,-184 71,-165 193,-165 193,-184"/>
<text text-anchor="middle" x="132" y="-172" font-family="Helvetica,sans-Serif" font-size="10.00">src/hash_table_utils.c</text>
</a>
</g>
</g>
<!-- Node2 -->
<g id="Node000002" class="node">
<title>Node2</title>
<g id="a_Node000002"><a xlink:title=" ">
<polygon fill="#e0e0e0" stroke="#999999" points="50,-129 0,-129 0,-110 50,-110 50,-129"/>
<text text-anchor="middle" x="25" y="-117" font-family="Helvetica,sans-Serif" font-size="10.00">stdio.h</text>
</a>
</g>
</g>
<!-- Node1&#45;&gt;Node2 -->
<g id="edge1_Node000001_Node000002" class="edge">
<title>Node1&#45;&gt;Node2</title>
<g id="a_edge1_Node000001_Node000002"><a xlink:title=" ">
<path fill="none" stroke="#63b8ff" d="M114.81,-164.98C97.75,-156.54 71.37,-143.47 51.6,-133.68"/>
<polygon fill="#63b8ff" stroke="#63b8ff" points="53.02,-130.47 42.5,-129.17 49.91,-136.75 53.02,-130.47"/>
</a>
</g>
</g>
<!-- Node3 -->
<g id="Node000003" class="node">
<title>Node3</title>
<g id="a_Node000003"><a xlink:title=" ">
<polygon fill="#e0e0e0" stroke="#999999" points="124,-129 68,-129 68,-110 124,-110 124,-129"/>
<text text-anchor="middle" x="96" y="-117" font-family="Helvetica,sans-Serif" font-size="10.00">assert.h</text>
</a>
</g>
</g>
<!-- Node1&#45;&gt;Node3 -->
<g id="edge2_Node000001_Node000003" class="edge">
<title>Node1&#45;&gt;Node3</title>
<g id="a_edge2_Node000001_Node000003"><a xlink:title=" ">
<path fill="none" stroke="#63b8ff" d="M126.06,-164.75C121.02,-157.34 113.66,-146.5 107.49,-137.41"/>
<polygon fill="#63b8ff" stroke="#63b8ff" points="110.35,-135.39 101.83,-129.09 104.56,-139.33 110.35,-135.39"/>
</a>
</g>
</g>
<!-- Node4 -->
<g id="Node000004" class="node">
<title>Node4</title>
<g id="a_Node000004"><a xlink:title=" ">
<polygon fill="#e0e0e0" stroke="#999999" points="195.5,-129 142.5,-129 142.5,-110 195.5,-110 195.5,-129"/>
<text text-anchor="middle" x="169" y="-117" font-family="Helvetica,sans-Serif" font-size="10.00">limits.h</text>
</a>
</g>
</g>
<!-- Node1&#45;&gt;Node4 -->
<g id="edge3_Node000001_Node000004" class="edge">
<title>Node1&#45;&gt;Node4</title>
<g id="a_edge3_Node000001_Node000004"><a xlink:title=" ">
<path fill="none" stroke="#63b8ff" d="M138.11,-164.75C143.28,-157.34 150.85,-146.5 157.19,-137.41"/>
<polygon fill="#63b8ff" stroke="#63b8ff" points="160.15,-139.29 163,-129.09 154.41,-135.29 160.15,-139.29"/>
</a>
</g>
</g>
<!-- Node5 -->
<g id="Node000005" class="node">
<title>Node5</title>
<g id="a_Node000005"><a xlink:href="hash__table__internal_8h.html" target="_top" xlink:title="Internal HashTable API and utilities.">
<polygon fill="white" stroke="#666666" points="336,-129 214,-129 214,-110 336,-110 336,-129"/>
<text text-anchor="middle" x="275" y="-117" font-family="Helvetica,sans-Serif" font-size="10.00">hash_table_internal.h</text>
</a>
</g>
</g>
<!-- Node1&#45;&gt;Node5 -->
<g id="edge4_Node000001_Node000005" class="edge">
<title>Node1&#45;&gt;Node5</title>
<g id="a_edge4_Node000001_Node000005"><a xlink:title=" ">
<path fill="none" stroke="#63b8ff" d="M154.98,-164.98C178.5,-156.27 215.29,-142.63 241.94,-132.75"/>
<polygon fill="#63b8ff" stroke="#63b8ff" points="243.45,-135.93 251.61,-129.17 241.01,-129.36 243.45,-135.93"/>
</a>
</g>
</g>
<!-- Node6 -->
<g id="Node000006" class="node">
<title>Node6</title>
<g id="a_Node000006"><a xlink:title=" ">
<polygon fill="#e0e0e0" stroke="#999999" points="260,-74 204,-74 204,-55 260,-55 260,-74"/>
<text text-anchor="middle" x="232" y="-62" font-family="Helvetica,sans-Serif" font-size="10.00">stddef.h</text>
</a>
</g>
</g>
<!-- Node5&#45;&gt;Node6 -->
<g id="edge5_Node000005_Node000006" class="edge">
<title>Node5&#45;&gt;Node6</title>
<g id="a_edge5_Node000005_Node000006"><a xlink:title=" ">
<path fill="none" stroke="#63b8ff" d="M267.9,-109.75C261.83,-102.26 252.91,-91.28 245.49,-82.13"/>
<polygon fill="#63b8ff" stroke="#63b8ff" points="247.99,-79.65 238.97,-74.09 242.55,-84.06 247.99,-79.65"/>
</a>
</g>
</g>
<!-- Node7 -->
<g id="Node000007" class="node">
<title>Node7</title>
<g id="a_Node000007"><a xlink:href="hash__table_8h.html" target="_top" xlink:title="Public API for HashTable.">
<polygon fill="white" stroke="#666666" points="357.5,-74 278.5,-74 278.5,-55 357.5,-55 357.5,-74"/>
<text text-anchor="middle" x="318" y="-62" font-family="Helvetica,sans-Serif" font-size="10.00">hash_table.h</text>
</a>
</g>
</g>
<!-- Node5&#45;&gt;Node7 -->
<g id="edge6_Node000005_Node000007" class="edge">
<title>Node5&#45;&gt;Node7</title>
<g id="a_edge6_Node000005_Node000007"><a xlink:title=" ">
<path fill="none" stroke="#63b8ff" d="M282.1,-109.75C288.17,-102.26 297.09,-91.28 304.51,-82.13"/>
<polygon fill="#63b8ff" stroke="#63b8ff" points="307.45,-84.06 311.03,-74.09 302.01,-79.65 307.45,-84.06"/>
</a>
</g>
</g>
<!-- Node8 -->
<g id="Node000008" class="node">
<title>Node8</title>
<g id="a_Node000008"><a xlink:title=" ">
<polygon fill="#e0e0e0" stroke="#999999" points="349,-19 287,-19 287,0 349,0 349,-19"/>
<text text-anchor="middle" x="318" y="-7" font-family="Helvetica,sans-Serif" font-size="10.00">stdbool.h</text>
</a>
</g>
</g>
<!-- Node7&#45;&gt;Node8 -->
<g id="edge7_Node000007_Node000008" class="edge">
<title>Node7&#45;&gt;Node8</title>
<g id="a_edge7_Node000007_Node000008"><a xlink:title=" ">
<path fill="none" stroke="#63b8ff" d="M318,-54.75C318,-47.8 318,-37.85 318,-29.13"/>
<polygon fill="#63b8ff" stroke="#63b8ff" points="321.5,-29.09 318,-19.09 314.5,-29.09 321.5,-29.09"/>
</a>
</g>
</g>
</g>
</svg>
