<?xml version="1.0" encoding="UTF-8" standalone="no"?>
<!DOCTYPE svg PUBLIC "-//W3C//DTD SVG 1.1//EN"
 "http://www.w3.org/Graphics/SVG/1.1/DTD/svg11.dtd">
<!-- Generated by graphviz version 2.43.0 (0)
 -->
<!-- Title: src/hash_table/hash_table_io.c Pages: 1 -->
<svg width="442pt" height="170pt"
 viewBox="0.00 0.00 442.00 170.00" xmlns="http://www.w3.org/2000/svg" xmlns:xlink="http://www.w3.org/1999/xlink">
<g id="graph0" class="graph" transform="scale(1 1) rotate(0) translate(4 166)">
<title>src/hash_table/hash_table_io.c</title>
<!-- Node1 -->
<g id="Node000001" class="node">
<title>Node1</title>
<g id="a_Node000001"><a xlink:title="Persistence and print methods for HashTable.">
<polygon fill="#999999" stroke="#666666" points="206.5,-162 93.5,-162 93.5,-132 206.5,-132 206.5,-162"/>
<text text-anchor="start" x="101.5" y="-150" font-family="Helvetica,sans-Serif" font-size="10.00">src/hash_table/hash</text>
<text text-anchor="middle" x="150" y="-139" font-family="Helvetica,sans-Serif" font-size="10.00">_table_io.c</text>
</a>
</g>
</g>
<!-- Node2 -->
<g id="Node000002" class="node">
<title>Node2</title>
<g id="a_Node000002"><a xlink:title=" ">
<polygon fill="#e0e0e0" stroke="#999999" points="50,-90.5 0,-90.5 0,-71.5 50,-71.5 50,-90.5"/>
<text text-anchor="middle" x="25" y="-78.5" font-family="Helvetica,sans-Serif" font-size="10.00">stdio.h</text>
</a>
</g>
</g>
<!-- Node1&#45;&gt;Node2 -->
<g id="edge1_Node000001_Node000002" class="edge">
<title>Node1&#45;&gt;Node2</title>
<g id="a_edge1_Node000001_Node000002"><a xlink:title=" ">
<path fill="none" stroke="#63b8ff" d="M122.57,-131.95C101.13,-120.98 71.55,-105.83 50.6,-95.11"/>
<polygon fill="#63b8ff" stroke="#63b8ff" points="52.13,-91.96 41.64,-90.52 48.94,-98.19 52.13,-91.96"/>
</a>
</g>
</g>
<!-- Node3 -->
<g id="Node000003" class="node">
<title>Node3</title>
<g id="a_Node000003"><a xlink:title=" ">
<polygon fill="#e0e0e0" stroke="#999999" points="121.5,-90.5 68.5,-90.5 68.5,-71.5 121.5,-71.5 121.5,-90.5"/>
<text text-anchor="middle" x="95" y="-78.5" font-family="Helvetica,sans-Serif" font-size="10.00">string.h</text>
</a>
</g>
</g>
<!-- Node1&#45;&gt;Node3 -->
<g id="edge2_Node000001_Node000003" class="edge">
<title>Node1&#45;&gt;Node3</title>
<g id="a_edge2_Node000001_Node000003"><a xlink:title=" ">
<path fill="none" stroke="#63b8ff" d="M137.79,-131.8C129.39,-122.01 118.19,-108.98 109.35,-98.7"/>
<polygon fill="#63b8ff" stroke="#63b8ff" points="111.77,-96.15 102.6,-90.84 106.46,-100.71 111.77,-96.15"/>
</a>
</g>
</g>
<!-- Node4 -->
<g id="Node000004" class="node">
<title>Node4</title>
<g id="a_Node000004"><a xlink:href="hash__table_8h.html" target="_top" xlink:title="Public API for HashTable.">
<polygon fill="white" stroke="#666666" points="191.5,-24.5 112.5,-24.5 112.5,-5.5 191.5,-5.5 191.5,-24.5"/>
<text text-anchor="middle" x="152" y="-12.5" font-family="Helvetica,sans-Serif" font-size="10.00">hash_table.h</text>
</a>
</g>
</g>
<!-- Node1&#45;&gt;Node4 -->
<g id="edge3_Node000001_Node000004" class="edge">
<title>Node1&#45;&gt;Node4</title>
<g id="a_edge3_Node000001_Node000004"><a xlink:title=" ">
<path fill="none" stroke="#63b8ff" d="M150.22,-131.84C150.58,-108.34 151.3,-61.26 151.71,-34.93"/>
<polygon fill="#63b8ff" stroke="#63b8ff" points="155.21,-34.8 151.87,-24.75 148.21,-34.69 155.21,-34.8"/>
</a>
</g>
</g>
<!-- Node5 -->
<g id="Node000005" class="node">
<title>Node5</title>
<g id="a_Node000005"><a xlink:href="hash__table__internal_8h.html" target="_top" xlink:title="Internal HashTable API and utilities.">
<polygon fill="white" stroke="#666666" points="300,-90.5 178,-90.5 178,-71.5 300,-71.5 300,-90.5"/>
<text text-anchor="middle" x="239" y="-78.5" font-family="Helvetica,sans-Serif" font-size="10.00">hash_table_internal.h</text>
</a>
</g>
</g>
<!-- Node1&#45;&gt;Node5 -->
<g id="edge4_Node000001_Node000005" class="edge">
<title>Node1&#45;&gt;Node5</title>
<g id="a_edge4_Node000001_Node000005"><a xlink:title=" ">
<path fill="none" stroke="#63b8ff" d="M169.75,-131.8C184.26,-121.37 203.9,-107.24 218.56,-96.69"/>
<polygon fill="#63b8ff" stroke="#63b8ff" points="220.88,-99.34 226.96,-90.66 216.8,-93.66 220.88,-99.34"/>
</a>
</g>
</g>
<!-- Node7 -->
<g id="Node000007" class="node">
<title>Node7</title>
<g id="a_Node000007"><a xlink:href="interactive__mode_8h.html" target="_top" xlink:title="Argument parser API for interactive mode.">
<polygon fill="white" stroke="#666666" points="432,-96 318,-96 318,-66 432,-66 432,-96"/>
<text text-anchor="start" x="326" y="-84" font-family="Helvetica,sans-Serif" font-size="10.00">../interactive_mode</text>
<text text-anchor="middle" x="375" y="-73" font-family="Helvetica,sans-Serif" font-size="10.00">/interactive_mode.h</text>
</a>
</g>
</g>
<!-- Node1&#45;&gt;Node7 -->
<g id="edge7_Node000001_Node000007" class="edge">
<title>Node1&#45;&gt;Node7</title>
<g id="a_edge7_Node000001_Node000007"><a xlink:title=" ">
<path fill="none" stroke="#63b8ff" d="M199.38,-131.95C233.67,-122.2 279.53,-109.16 315.78,-98.84"/>
<polygon fill="#63b8ff" stroke="#63b8ff" points="317.08,-102.11 325.74,-96.01 315.16,-95.38 317.08,-102.11"/>
</a>
</g>
</g>
<!-- Node5&#45;&gt;Node4 -->
<g id="edge6_Node000005_Node000004" class="edge">
<title>Node5&#45;&gt;Node4</title>
<g id="a_edge6_Node000005_Node000004"><a xlink:title=" ">
<path fill="none" stroke="#63b8ff" d="M227.27,-71.37C213.13,-60.97 189.14,-43.32 172.05,-30.75"/>
<polygon fill="#63b8ff" stroke="#63b8ff" points="173.95,-27.81 163.83,-24.7 169.81,-33.44 173.95,-27.81"/>
</a>
</g>
</g>
<!-- Node6 -->
<g id="Node000006" class="node">
<title>Node6</title>
<g id="a_Node000006"><a xlink:title=" ">
<polygon fill="#e0e0e0" stroke="#999999" points="267,-24.5 211,-24.5 211,-5.5 267,-5.5 267,-24.5"/>
<text text-anchor="middle" x="239" y="-12.5" font-family="Helvetica,sans-Serif" font-size="10.00">stddef.h</text>
</a>
</g>
</g>
<!-- Node5&#45;&gt;Node6 -->
<g id="edge5_Node000005_Node000006" class="edge">
<title>Node5&#45;&gt;Node6</title>
<g id="a_edge5_Node000005_Node000006"><a xlink:title=" ">
<path fill="none" stroke="#63b8ff" d="M239,-71.37C239,-62.16 239,-47.29 239,-35.27"/>
<polygon fill="#63b8ff" stroke="#63b8ff" points="242.5,-34.91 239,-24.91 235.5,-34.91 242.5,-34.91"/>
</a>
</g>
</g>
<!-- Node8 -->
<g id="Node000008" class="node">
<title>Node8</title>
<g id="a_Node000008"><a xlink:href="fprintf__color_8h.html" target="_top" xlink:title="Header file for fprintf_color() function.">
<polygon fill="white" stroke="#666666" points="434,-30 316,-30 316,0 434,0 434,-30"/>
<text text-anchor="start" x="324" y="-18" font-family="Helvetica,sans-Serif" font-size="10.00">../fprintf_color/fprintf</text>
<text text-anchor="middle" x="375" y="-7" font-family="Helvetica,sans-Serif" font-size="10.00">_color.h</text>
</a>
</g>
</g>
<!-- Node7&#45;&gt;Node8 -->
<g id="edge8_Node000007_Node000008" class="edge">
<title>Node7&#45;&gt;Node8</title>
<g id="a_edge8_Node000007_Node000008"><a xlink:title=" ">
<path fill="none" stroke="#63b8ff" d="M375,-65.8C375,-58.34 375,-48.99 375,-40.41"/>
<polygon fill="#63b8ff" stroke="#63b8ff" points="378.5,-40.16 375,-30.16 371.5,-40.16 378.5,-40.16"/>
</a>
</g>
</g>
</g>
</svg>
