<?xml version="1.0" encoding="UTF-8" standalone="no"?>
<!DOCTYPE svg PUBLIC "-//W3C//DTD SVG 1.1//EN"
 "http://www.w3.org/Graphics/SVG/1.1/DTD/svg11.dtd">
<!-- Generated by graphviz version 2.43.0 (0)
 -->
<!-- Title: src/hash_table.h Pages: 1 -->
<svg width="546pt" height="137pt"
 viewBox="0.00 0.00 546.00 137.00" xmlns="http://www.w3.org/2000/svg" xmlns:xlink="http://www.w3.org/1999/xlink">
<g id="graph0" class="graph" transform="scale(1 1) rotate(0) translate(4 133)">
<title>src/hash_table.h</title>
<!-- Node1 -->
<g id="Node000001" class="node">
<title>Node1</title>
<g id="a_Node000001"><a xlink:title="Public API for HashTable.">
<polygon fill="#999999" stroke="#666666" points="341,-129 245,-129 245,-110 341,-110 341,-129"/>
<text text-anchor="middle" x="293" y="-117" font-family="Helvetica,sans-Serif" font-size="10.00">src/hash_table.h</text>
</a>
</g>
</g>
<!-- Node2 -->
<g id="Node000002" class="node">
<title>Node2</title>
<g id="a_Node000002"><a xlink:href="hash__table__core_8c.html" target="_top" xlink:title="Core HashTable methods.">
<polygon fill="white" stroke="#666666" points="122,-19 0,-19 0,0 122,0 122,-19"/>
<text text-anchor="middle" x="61" y="-7" font-family="Helvetica,sans-Serif" font-size="10.00">src/hash_table_core.c</text>
</a>
</g>
</g>
<!-- Node1&#45;&gt;Node2 -->
<g id="edge1_Node000001_Node000002" class="edge">
<title>Node1&#45;&gt;Node2</title>
<g id="a_edge1_Node000001_Node000002"><a xlink:title=" ">
<path fill="none" stroke="#63b8ff" d="M265.22,-105.57C217.18,-83.21 119.88,-37.91 79.36,-19.05"/>
<polygon fill="#63b8ff" stroke="#63b8ff" points="263.86,-108.8 274.41,-109.84 266.82,-102.45 263.86,-108.8"/>
</a>
</g>
</g>
<!-- Node3 -->
<g id="Node000003" class="node">
<title>Node3</title>
<g id="a_Node000003"><a xlink:href="hash__table__internal_8h.html" target="_top" xlink:title="Internal HashTable API and utilities.">
<polygon fill="white" stroke="#666666" points="362.5,-74 223.5,-74 223.5,-55 362.5,-55 362.5,-74"/>
<text text-anchor="middle" x="293" y="-62" font-family="Helvetica,sans-Serif" font-size="10.00">src/hash_table_internal.h</text>
</a>
</g>
</g>
<!-- Node1&#45;&gt;Node3 -->
<g id="edge2_Node000001_Node000003" class="edge">
<title>Node1&#45;&gt;Node3</title>
<g id="a_edge2_Node000001_Node000003"><a xlink:title=" ">
<path fill="none" stroke="#63b8ff" d="M293,-99.66C293,-90.93 293,-80.99 293,-74.09"/>
<polygon fill="#63b8ff" stroke="#63b8ff" points="289.5,-99.75 293,-109.75 296.5,-99.75 289.5,-99.75"/>
</a>
</g>
</g>
<!-- Node4 -->
<g id="Node000004" class="node">
<title>Node4</title>
<g id="a_Node000004"><a xlink:href="hash__table__io_8c.html" target="_top" xlink:title="Persistence and print methods for HashTable.">
<polygon fill="white" stroke="#666666" points="250,-19 140,-19 140,0 250,0 250,-19"/>
<text text-anchor="middle" x="195" y="-7" font-family="Helvetica,sans-Serif" font-size="10.00">src/hash_table_io.c</text>
</a>
</g>
</g>
<!-- Node1&#45;&gt;Node4 -->
<g id="edge7_Node000001_Node000004" class="edge">
<title>Node1&#45;&gt;Node4</title>
<g id="a_edge7_Node000001_Node000004"><a xlink:title=" ">
<path fill="none" stroke="#63b8ff" d="M259.02,-105.9C243.66,-98.67 226.43,-88.17 215,-74 201.79,-57.63 197.26,-32.44 195.74,-19.25"/>
<polygon fill="#63b8ff" stroke="#63b8ff" points="257.71,-109.15 268.28,-109.99 260.54,-102.75 257.71,-109.15"/>
</a>
</g>
</g>
<!-- Node5 -->
<g id="Node000005" class="node">
<title>Node5</title>
<g id="a_Node000005"><a xlink:href="hash__table__resize_8c.html" target="_top" xlink:title="Internal methods for creating and resizing a HashTable.">
<polygon fill="white" stroke="#666666" points="538,-19 408,-19 408,0 538,0 538,-19"/>
<text text-anchor="middle" x="473" y="-7" font-family="Helvetica,sans-Serif" font-size="10.00">src/hash_table_resize.c</text>
</a>
</g>
</g>
<!-- Node1&#45;&gt;Node5 -->
<g id="edge8_Node000001_Node000005" class="edge">
<title>Node1&#45;&gt;Node5</title>
<g id="a_edge8_Node000001_Node000005"><a xlink:title=" ">
<path fill="none" stroke="#63b8ff" d="M317.91,-104.87C333.55,-96.22 354.08,-84.67 372,-74 403.85,-55.03 440.54,-31.54 459.73,-19.13"/>
<polygon fill="#63b8ff" stroke="#63b8ff" points="315.93,-101.96 308.87,-109.86 319.31,-108.09 315.93,-101.96"/>
</a>
</g>
</g>
<!-- Node7 -->
<g id="Node000007" class="node">
<title>Node7</title>
<g id="a_Node000007"><a xlink:href="main_8c.html" target="_top" xlink:title="Interactive program to play with the HashTable.">
<polygon fill="white" stroke="#666666" points="486.5,-74 419.5,-74 419.5,-55 486.5,-55 486.5,-74"/>
<text text-anchor="middle" x="453" y="-62" font-family="Helvetica,sans-Serif" font-size="10.00">src/main.c</text>
</a>
</g>
</g>
<!-- Node1&#45;&gt;Node7 -->
<g id="edge9_Node000001_Node000007" class="edge">
<title>Node1&#45;&gt;Node7</title>
<g id="a_edge9_Node000001_Node000007"><a xlink:title=" ">
<path fill="none" stroke="#63b8ff" d="M328.33,-106.8C358.19,-96.91 400.27,-82.97 427.09,-74.08"/>
<polygon fill="#63b8ff" stroke="#63b8ff" points="327.1,-103.52 318.71,-109.98 329.3,-110.16 327.1,-103.52"/>
</a>
</g>
</g>
<!-- Node3&#45;&gt;Node2 -->
<g id="edge3_Node000003_Node000002" class="edge">
<title>Node3&#45;&gt;Node2</title>
<g id="a_edge3_Node000003_Node000002"><a xlink:title=" ">
<path fill="none" stroke="#63b8ff" d="M245.96,-52.75C202.48,-42.82 138.73,-28.26 98.57,-19.08"/>
<polygon fill="#63b8ff" stroke="#63b8ff" points="245.2,-56.17 255.73,-54.98 246.76,-49.35 245.2,-56.17"/>
</a>
</g>
</g>
<!-- Node3&#45;&gt;Node4 -->
<g id="edge4_Node000003_Node000004" class="edge">
<title>Node3&#45;&gt;Node4</title>
<g id="a_edge4_Node000003_Node000004"><a xlink:title=" ">
<path fill="none" stroke="#63b8ff" d="M267.97,-49.97C250.06,-40.28 226.47,-27.52 211.03,-19.17"/>
<polygon fill="#63b8ff" stroke="#63b8ff" points="266.79,-53.31 277.25,-54.98 270.12,-47.15 266.79,-53.31"/>
</a>
</g>
</g>
<!-- Node3&#45;&gt;Node5 -->
<g id="edge5_Node000003_Node000005" class="edge">
<title>Node3&#45;&gt;Node5</title>
<g id="a_edge5_Node000003_Node000005"><a xlink:title=" ">
<path fill="none" stroke="#63b8ff" d="M331.87,-52.06C365.51,-42.15 413.42,-28.04 443.85,-19.08"/>
<polygon fill="#63b8ff" stroke="#63b8ff" points="330.52,-48.8 321.92,-54.98 332.5,-55.52 330.52,-48.8"/>
</a>
</g>
</g>
<!-- Node6 -->
<g id="Node000006" class="node">
<title>Node6</title>
<g id="a_Node000006"><a xlink:href="hash__table__utils_8c.html" target="_top" xlink:title="Internal utility functions for HashTable.">
<polygon fill="white" stroke="#666666" points="390,-19 268,-19 268,0 390,0 390,-19"/>
<text text-anchor="middle" x="329" y="-7" font-family="Helvetica,sans-Serif" font-size="10.00">src/hash_table_utils.c</text>
</a>
</g>
</g>
<!-- Node3&#45;&gt;Node6 -->
<g id="edge6_Node000003_Node000006" class="edge">
<title>Node3&#45;&gt;Node6</title>
<g id="a_edge6_Node000003_Node000006"><a xlink:title=" ">
<path fill="none" stroke="#63b8ff" d="M304.62,-46.39C310.82,-37.27 318.17,-26.45 323.17,-19.09"/>
<polygon fill="#63b8ff" stroke="#63b8ff" points="301.67,-44.51 298.94,-54.75 307.46,-48.44 301.67,-44.51"/>
</a>
</g>
</g>
</g>
</svg>
