<?xml version="1.0" encoding="UTF-8" standalone="no"?>
<!DOCTYPE svg PUBLIC "-//W3C//DTD SVG 1.1//EN"
 "http://www.w3.org/Graphics/SVG/1.1/DTD/svg11.dtd">
<!-- Generated by graphviz version 2.43.0 (0)
 -->
<!-- Title: src/hash_table_internal.h Pages: 1 -->
<svg width="546pt" height="82pt"
 viewBox="0.00 0.00 546.00 82.00" xmlns="http://www.w3.org/2000/svg" xmlns:xlink="http://www.w3.org/1999/xlink">
<g id="graph0" class="graph" transform="scale(1 1) rotate(0) translate(4 78)">
<title>src/hash_table_internal.h</title>
<!-- Node1 -->
<g id="Node000001" class="node">
<title>Node1</title>
<g id="a_Node000001"><a xlink:title="Internal HashTable API and utilities.">
<polygon fill="#999999" stroke="#666666" points="333.5,-74 194.5,-74 194.5,-55 333.5,-55 333.5,-74"/>
<text text-anchor="middle" x="264" y="-62" font-family="Helvetica,sans-Serif" font-size="10.00">src/hash_table_internal.h</text>
</a>
</g>
</g>
<!-- Node2 -->
<g id="Node000002" class="node">
<title>Node2</title>
<g id="a_Node000002"><a xlink:href="hash__table__core_8c.html" target="_top" xlink:title="Core HashTable methods.">
<polygon fill="white" stroke="#666666" points="122,-19 0,-19 0,0 122,0 122,-19"/>
<text text-anchor="middle" x="61" y="-7" font-family="Helvetica,sans-Serif" font-size="10.00">src/hash_table_core.c</text>
</a>
</g>
</g>
<!-- Node1&#45;&gt;Node2 -->
<g id="edge1_Node000001_Node000002" class="edge">
<title>Node1&#45;&gt;Node2</title>
<g id="a_edge1_Node000001_Node000002"><a xlink:title=" ">
<path fill="none" stroke="#63b8ff" d="M221.63,-52.44C183.63,-42.52 128.64,-28.16 93.87,-19.08"/>
<polygon fill="#63b8ff" stroke="#63b8ff" points="220.82,-55.84 231.38,-54.98 222.59,-49.07 220.82,-55.84"/>
</a>
</g>
</g>
<!-- Node3 -->
<g id="Node000003" class="node">
<title>Node3</title>
<g id="a_Node000003"><a xlink:href="hash__table__io_8c.html" target="_top" xlink:title="Persistence and print methods for HashTable.">
<polygon fill="white" stroke="#666666" points="250,-19 140,-19 140,0 250,0 250,-19"/>
<text text-anchor="middle" x="195" y="-7" font-family="Helvetica,sans-Serif" font-size="10.00">src/hash_table_io.c</text>
</a>
</g>
</g>
<!-- Node1&#45;&gt;Node3 -->
<g id="edge2_Node000001_Node000003" class="edge">
<title>Node1&#45;&gt;Node3</title>
<g id="a_edge2_Node000001_Node000003"><a xlink:title=" ">
<path fill="none" stroke="#63b8ff" d="M244.96,-48.88C232.54,-39.34 216.76,-27.21 206.29,-19.17"/>
<polygon fill="#63b8ff" stroke="#63b8ff" points="242.85,-51.67 252.91,-54.98 247.12,-46.12 242.85,-51.67"/>
</a>
</g>
</g>
<!-- Node4 -->
<g id="Node000004" class="node">
<title>Node4</title>
<g id="a_Node000004"><a xlink:href="hash__table__resize_8c.html" target="_top" xlink:title="Internal methods for creating and resizing a HashTable.">
<polygon fill="white" stroke="#666666" points="398,-19 268,-19 268,0 398,0 398,-19"/>
<text text-anchor="middle" x="333" y="-7" font-family="Helvetica,sans-Serif" font-size="10.00">src/hash_table_resize.c</text>
</a>
</g>
</g>
<!-- Node1&#45;&gt;Node4 -->
<g id="edge3_Node000001_Node000004" class="edge">
<title>Node1&#45;&gt;Node4</title>
<g id="a_edge3_Node000001_Node000004"><a xlink:title=" ">
<path fill="none" stroke="#63b8ff" d="M283.04,-48.88C295.46,-39.34 311.24,-27.21 321.71,-19.17"/>
<polygon fill="#63b8ff" stroke="#63b8ff" points="280.88,-46.12 275.09,-54.98 285.15,-51.67 280.88,-46.12"/>
</a>
</g>
</g>
<!-- Node5 -->
<g id="Node000005" class="node">
<title>Node5</title>
<g id="a_Node000005"><a xlink:href="hash__table__utils_8c.html" target="_top" xlink:title="Internal utility functions for HashTable.">
<polygon fill="white" stroke="#666666" points="538,-19 416,-19 416,0 538,0 538,-19"/>
<text text-anchor="middle" x="477" y="-7" font-family="Helvetica,sans-Serif" font-size="10.00">src/hash_table_utils.c</text>
</a>
</g>
</g>
<!-- Node1&#45;&gt;Node5 -->
<g id="edge4_Node000001_Node000005" class="edge">
<title>Node1&#45;&gt;Node5</title>
<g id="a_edge4_Node000001_Node000005"><a xlink:title=" ">
<path fill="none" stroke="#63b8ff" d="M307.95,-52.56C347.84,-42.64 405.87,-28.2 442.51,-19.08"/>
<polygon fill="#63b8ff" stroke="#63b8ff" points="307.08,-49.17 298.22,-54.98 308.77,-55.97 307.08,-49.17"/>
</a>
</g>
</g>
</g>
</svg>
