<?xml version="1.0" encoding="UTF-8" standalone="no"?>
<!DOCTYPE svg PUBLIC "-//W3C//DTD SVG 1.1//EN"
 "http://www.w3.org/Graphics/SVG/1.1/DTD/svg11.dtd">
<!-- Generated by graphviz version 2.43.0 (0)
 -->
<!-- Title: src/hash_table/hash_table.h Pages: 1 -->
<svg width="514pt" height="170pt"
 viewBox="0.00 0.00 514.00 170.00" xmlns="http://www.w3.org/2000/svg" xmlns:xlink="http://www.w3.org/1999/xlink">
<g id="graph0" class="graph" transform="scale(1 1) rotate(0) translate(4 166)">
<title>src/hash_table/hash_table.h</title>
<!-- Node1 -->
<g id="Node000001" class="node">
<title>Node1</title>
<g id="a_Node000001"><a xlink:title="Public API for HashTable.">
<polygon fill="#999999" stroke="#666666" points="329,-162 216,-162 216,-132 329,-132 329,-162"/>
<text text-anchor="start" x="224" y="-150" font-family="Helvetica,sans-Serif" font-size="10.00">src/hash_table/hash</text>
<text text-anchor="middle" x="272.5" y="-139" font-family="Helvetica,sans-Serif" font-size="10.00">_table.h</text>
</a>
</g>
</g>
<!-- Node2 -->
<g id="Node000002" class="node">
<title>Node2</title>
<g id="a_Node000002"><a xlink:href="hash__table__core_8c.html" target="_top" xlink:title="Core HashTable methods.">
<polygon fill="white" stroke="#666666" points="113,-30 0,-30 0,0 113,0 113,-30"/>
<text text-anchor="start" x="8" y="-18" font-family="Helvetica,sans-Serif" font-size="10.00">src/hash_table/hash</text>
<text text-anchor="middle" x="56.5" y="-7" font-family="Helvetica,sans-Serif" font-size="10.00">_table_core.c</text>
</a>
</g>
</g>
<!-- Node1&#45;&gt;Node2 -->
<g id="edge1_Node000001_Node000002" class="edge">
<title>Node1&#45;&gt;Node2</title>
<g id="a_edge1_Node000001_Node000002"><a xlink:title=" ">
<path fill="none" stroke="#63b8ff" d="M240.13,-126.52C196.21,-100.09 118.77,-53.48 80,-30.14"/>
<polygon fill="#63b8ff" stroke="#63b8ff" points="238.6,-129.68 248.97,-131.84 242.21,-123.68 238.6,-129.68"/>
</a>
</g>
</g>
<!-- Node3 -->
<g id="Node000003" class="node">
<title>Node3</title>
<g id="a_Node000003"><a xlink:href="hash__table__internal_8h.html" target="_top" xlink:title="Internal HashTable API and utilities.">
<polygon fill="white" stroke="#666666" points="329,-96 216,-96 216,-66 329,-66 329,-96"/>
<text text-anchor="start" x="224" y="-84" font-family="Helvetica,sans-Serif" font-size="10.00">src/hash_table/hash</text>
<text text-anchor="middle" x="272.5" y="-73" font-family="Helvetica,sans-Serif" font-size="10.00">_table_internal.h</text>
</a>
</g>
</g>
<!-- Node1&#45;&gt;Node3 -->
<g id="edge2_Node000001_Node000003" class="edge">
<title>Node1&#45;&gt;Node3</title>
<g id="a_edge2_Node000001_Node000003"><a xlink:title=" ">
<path fill="none" stroke="#63b8ff" d="M272.5,-121.54C272.5,-112.96 272.5,-103.61 272.5,-96.16"/>
<polygon fill="#63b8ff" stroke="#63b8ff" points="269,-121.8 272.5,-131.8 276,-121.8 269,-121.8"/>
</a>
</g>
</g>
<!-- Node4 -->
<g id="Node000004" class="node">
<title>Node4</title>
<g id="a_Node000004"><a xlink:href="hash__table__io_8c.html" target="_top" xlink:title="Persistence and print methods for HashTable.">
<polygon fill="white" stroke="#666666" points="244,-30 131,-30 131,0 244,0 244,-30"/>
<text text-anchor="start" x="139" y="-18" font-family="Helvetica,sans-Serif" font-size="10.00">src/hash_table/hash</text>
<text text-anchor="middle" x="187.5" y="-7" font-family="Helvetica,sans-Serif" font-size="10.00">_table_io.c</text>
</a>
</g>
</g>
<!-- Node1&#45;&gt;Node4 -->
<g id="edge7_Node000001_Node000004" class="edge">
<title>Node1&#45;&gt;Node4</title>
<g id="a_edge7_Node000001_Node000004"><a xlink:title=" ">
<path fill="none" stroke="#63b8ff" d="M238.07,-126.1C226.84,-118.06 215.27,-107.86 207.5,-96 194.16,-75.64 189.72,-47.04 188.24,-30.13"/>
<polygon fill="#63b8ff" stroke="#63b8ff" points="236.28,-129.11 246.52,-131.81 240.2,-123.31 236.28,-129.11"/>
</a>
</g>
</g>
<!-- Node5 -->
<g id="Node000005" class="node">
<title>Node5</title>
<g id="a_Node000005"><a xlink:href="hash__table__resize_8c.html" target="_top" xlink:title="Internal methods for creating and resizing a HashTable.">
<polygon fill="white" stroke="#666666" points="506,-30 393,-30 393,0 506,0 506,-30"/>
<text text-anchor="start" x="401" y="-18" font-family="Helvetica,sans-Serif" font-size="10.00">src/hash_table/hash</text>
<text text-anchor="middle" x="449.5" y="-7" font-family="Helvetica,sans-Serif" font-size="10.00">_table_resize.c</text>
</a>
</g>
</g>
<!-- Node1&#45;&gt;Node5 -->
<g id="edge8_Node000001_Node000005" class="edge">
<title>Node1&#45;&gt;Node5</title>
<g id="a_edge8_Node000001_Node000005"><a xlink:title=" ">
<path fill="none" stroke="#63b8ff" d="M299.56,-125.57C311.51,-116.53 325.72,-105.76 338.5,-96 355.88,-82.73 359.85,-78.91 377.5,-66 394.45,-53.6 414.05,-40.04 428.52,-30.18"/>
<polygon fill="#63b8ff" stroke="#63b8ff" points="297.17,-122.99 291.3,-131.81 301.39,-128.57 297.17,-122.99"/>
</a>
</g>
</g>
<!-- Node7 -->
<g id="Node000007" class="node">
<title>Node7</title>
<g id="a_Node000007"><a xlink:href="main_8c.html" target="_top" xlink:title="Interactive program to play with the HashTable.">
<polygon fill="white" stroke="#666666" points="453,-90.5 386,-90.5 386,-71.5 453,-71.5 453,-90.5"/>
<text text-anchor="middle" x="419.5" y="-78.5" font-family="Helvetica,sans-Serif" font-size="10.00">src/main.c</text>
</a>
</g>
</g>
<!-- Node1&#45;&gt;Node7 -->
<g id="edge9_Node000001_Node000007" class="edge">
<title>Node1&#45;&gt;Node7</title>
<g id="a_edge9_Node000001_Node000007"><a xlink:title=" ">
<path fill="none" stroke="#63b8ff" d="M313.98,-127.94C342.14,-115.68 378.1,-100.02 399.94,-90.52"/>
<polygon fill="#63b8ff" stroke="#63b8ff" points="312.53,-124.75 304.76,-131.95 315.33,-131.17 312.53,-124.75"/>
</a>
</g>
</g>
<!-- Node3&#45;&gt;Node2 -->
<g id="edge3_Node000003_Node000002" class="edge">
<title>Node3&#45;&gt;Node2</title>
<g id="a_edge3_Node000003_Node000002"><a xlink:title=" ">
<path fill="none" stroke="#63b8ff" d="M215.09,-62.99C180.33,-52.69 136.55,-39.72 103.79,-30.01"/>
<polygon fill="#63b8ff" stroke="#63b8ff" points="214.52,-66.47 225.1,-65.95 216.5,-59.76 214.52,-66.47"/>
</a>
</g>
</g>
<!-- Node3&#45;&gt;Node4 -->
<g id="edge4_Node000003_Node000004" class="edge">
<title>Node3&#45;&gt;Node4</title>
<g id="a_edge4_Node000003_Node000004"><a xlink:title=" ">
<path fill="none" stroke="#63b8ff" d="M245.61,-59.75C232.83,-50.13 217.86,-38.86 206.31,-30.16"/>
<polygon fill="#63b8ff" stroke="#63b8ff" points="243.54,-62.58 253.64,-65.8 247.75,-56.99 243.54,-62.58"/>
</a>
</g>
</g>
<!-- Node3&#45;&gt;Node5 -->
<g id="edge5_Node000003_Node000005" class="edge">
<title>Node3&#45;&gt;Node5</title>
<g id="a_edge5_Node000003_Node000005"><a xlink:title=" ">
<path fill="none" stroke="#63b8ff" d="M321.02,-62.46C349.26,-52.25 384.37,-39.55 410.75,-30.01"/>
<polygon fill="#63b8ff" stroke="#63b8ff" points="319.56,-59.26 311.34,-65.95 321.94,-65.85 319.56,-59.26"/>
</a>
</g>
</g>
<!-- Node6 -->
<g id="Node000006" class="node">
<title>Node6</title>
<g id="a_Node000006"><a xlink:href="hash__table__utils_8c.html" target="_top" xlink:title="Internal utility functions for HashTable.">
<polygon fill="white" stroke="#666666" points="375,-30 262,-30 262,0 375,0 375,-30"/>
<text text-anchor="start" x="270" y="-18" font-family="Helvetica,sans-Serif" font-size="10.00">src/hash_table/hash</text>
<text text-anchor="middle" x="318.5" y="-7" font-family="Helvetica,sans-Serif" font-size="10.00">_table_utils.c</text>
</a>
</g>
</g>
<!-- Node3&#45;&gt;Node6 -->
<g id="edge6_Node000003_Node000006" class="edge">
<title>Node3&#45;&gt;Node6</title>
<g id="a_edge6_Node000003_Node000006"><a xlink:title=" ">
<path fill="none" stroke="#63b8ff" d="M288.65,-57.53C295.19,-48.43 302.55,-38.19 308.32,-30.16"/>
<polygon fill="#63b8ff" stroke="#63b8ff" points="285.7,-55.63 282.71,-65.8 291.39,-59.72 285.7,-55.63"/>
</a>
</g>
</g>
</g>
</svg>
