<?xml version="1.0" encoding="UTF-8" standalone="no"?>
<!DOCTYPE svg PUBLIC "-//W3C//DTD SVG 1.1//EN"
 "http://www.w3.org/Graphics/SVG/1.1/DTD/svg11.dtd">
<!-- Generated by graphviz version 2.43.0 (0)
 -->
<!-- Title: src/hash_table/hash_table_io.c Pages: 1 -->
<svg width="472pt" height="170pt"
 viewBox="0.00 0.00 472.00 170.00" xmlns="http://www.w3.org/2000/svg" xmlns:xlink="http://www.w3.org/1999/xlink">
<g id="graph0" class="graph" transform="scale(1 1) rotate(0) translate(4 166)">
<title>src/hash_table/hash_table_io.c</title>
<!-- Node1 -->
<g id="Node000001" class="node">
<title>Node1</title>
<g id="a_Node000001"><a xlink:title="Persistence and print methods for HashTable.">
<polygon fill="#999999" stroke="#666666" points="236.5,-162 123.5,-162 123.5,-132 236.5,-132 236.5,-162"/>
<text text-anchor="start" x="131.5" y="-150" font-family="Helvetica,sans-Serif" font-size="10.00">src/hash_table/hash</text>
<text text-anchor="middle" x="180" y="-139" font-family="Helvetica,sans-Serif" font-size="10.00">_table_io.c</text>
</a>
</g>
</g>
<!-- Node2 -->
<g id="Node000002" class="node">
<title>Node2</title>
<g id="a_Node000002"><a xlink:title=" ">
<polygon fill="#e0e0e0" stroke="#999999" points="50,-90.5 0,-90.5 0,-71.5 50,-71.5 50,-90.5"/>
<text text-anchor="middle" x="25" y="-78.5" font-family="Helvetica,sans-Serif" font-size="10.00">stdio.h</text>
</a>
</g>
</g>
<!-- Node1&#45;&gt;Node2 -->
<g id="edge1_Node000001_Node000002" class="edge">
<title>Node1&#45;&gt;Node2</title>
<g id="a_edge1_Node000001_Node000002"><a xlink:title=" ">
<path fill="none" stroke="#63b8ff" d="M145.98,-131.95C118.8,-120.73 81.07,-105.15 55,-94.39"/>
<polygon fill="#63b8ff" stroke="#63b8ff" points="56.21,-91.1 45.63,-90.52 53.54,-97.57 56.21,-91.1"/>
</a>
</g>
</g>
<!-- Node3 -->
<g id="Node000003" class="node">
<title>Node3</title>
<g id="a_Node000003"><a xlink:title=" ">
<polygon fill="#e0e0e0" stroke="#999999" points="151.5,-90.5 68.5,-90.5 68.5,-71.5 151.5,-71.5 151.5,-90.5"/>
<text text-anchor="middle" x="110" y="-78.5" font-family="Helvetica,sans-Serif" font-size="10.00">mach/mach.h</text>
</a>
</g>
</g>
<!-- Node1&#45;&gt;Node3 -->
<g id="edge2_Node000001_Node000003" class="edge">
<title>Node1&#45;&gt;Node3</title>
<g id="a_edge2_Node000001_Node000003"><a xlink:title=" ">
<path fill="none" stroke="#63b8ff" d="M164.46,-131.8C153.44,-121.72 138.65,-108.19 127.26,-97.78"/>
<polygon fill="#63b8ff" stroke="#63b8ff" points="129.42,-95.01 119.67,-90.84 124.69,-100.18 129.42,-95.01"/>
</a>
</g>
</g>
<!-- Node4 -->
<g id="Node000004" class="node">
<title>Node4</title>
<g id="a_Node000004"><a xlink:href="hash__table_8h.html" target="_top" xlink:title="Public API for HashTable.">
<polygon fill="white" stroke="#666666" points="221.5,-24.5 142.5,-24.5 142.5,-5.5 221.5,-5.5 221.5,-24.5"/>
<text text-anchor="middle" x="182" y="-12.5" font-family="Helvetica,sans-Serif" font-size="10.00">hash_table.h</text>
</a>
</g>
</g>
<!-- Node1&#45;&gt;Node4 -->
<g id="edge3_Node000001_Node000004" class="edge">
<title>Node1&#45;&gt;Node4</title>
<g id="a_edge3_Node000001_Node000004"><a xlink:title=" ">
<path fill="none" stroke="#63b8ff" d="M180.22,-131.84C180.58,-108.34 181.3,-61.26 181.71,-34.93"/>
<polygon fill="#63b8ff" stroke="#63b8ff" points="185.21,-34.8 181.87,-24.75 178.21,-34.69 185.21,-34.8"/>
</a>
</g>
</g>
<!-- Node5 -->
<g id="Node000005" class="node">
<title>Node5</title>
<g id="a_Node000005"><a xlink:href="hash__table__internal_8h.html" target="_top" xlink:title="Internal HashTable API and utilities.">
<polygon fill="white" stroke="#666666" points="330,-90.5 208,-90.5 208,-71.5 330,-71.5 330,-90.5"/>
<text text-anchor="middle" x="269" y="-78.5" font-family="Helvetica,sans-Serif" font-size="10.00">hash_table_internal.h</text>
</a>
</g>
</g>
<!-- Node1&#45;&gt;Node5 -->
<g id="edge4_Node000001_Node000005" class="edge">
<title>Node1&#45;&gt;Node5</title>
<g id="a_edge4_Node000001_Node000005"><a xlink:title=" ">
<path fill="none" stroke="#63b8ff" d="M199.75,-131.8C214.26,-121.37 233.9,-107.24 248.56,-96.69"/>
<polygon fill="#63b8ff" stroke="#63b8ff" points="250.88,-99.34 256.96,-90.66 246.8,-93.66 250.88,-99.34"/>
</a>
</g>
</g>
<!-- Node7 -->
<g id="Node000007" class="node">
<title>Node7</title>
<g id="a_Node000007"><a xlink:href="interactive__mode_8h.html" target="_top" xlink:title="Argument parser API for interactive mode.">
<polygon fill="white" stroke="#666666" points="462,-96 348,-96 348,-66 462,-66 462,-96"/>
<text text-anchor="start" x="356" y="-84" font-family="Helvetica,sans-Serif" font-size="10.00">../interactive_mode</text>
<text text-anchor="middle" x="405" y="-73" font-family="Helvetica,sans-Serif" font-size="10.00">/interactive_mode.h</text>
</a>
</g>
</g>
<!-- Node1&#45;&gt;Node7 -->
<g id="edge7_Node000001_Node000007" class="edge">
<title>Node1&#45;&gt;Node7</title>
<g id="a_edge7_Node000001_Node000007"><a xlink:title=" ">
<path fill="none" stroke="#63b8ff" d="M229.38,-131.95C263.67,-122.2 309.53,-109.16 345.78,-98.84"/>
<polygon fill="#63b8ff" stroke="#63b8ff" points="347.08,-102.11 355.74,-96.01 345.16,-95.38 347.08,-102.11"/>
</a>
</g>
</g>
<!-- Node5&#45;&gt;Node4 -->
<g id="edge6_Node000005_Node000004" class="edge">
<title>Node5&#45;&gt;Node4</title>
<g id="a_edge6_Node000005_Node000004"><a xlink:title=" ">
<path fill="none" stroke="#63b8ff" d="M257.27,-71.37C243.13,-60.97 219.14,-43.32 202.05,-30.75"/>
<polygon fill="#63b8ff" stroke="#63b8ff" points="203.95,-27.81 193.83,-24.7 199.81,-33.44 203.95,-27.81"/>
</a>
</g>
</g>
<!-- Node6 -->
<g id="Node000006" class="node">
<title>Node6</title>
<g id="a_Node000006"><a xlink:title=" ">
<polygon fill="#e0e0e0" stroke="#999999" points="297,-24.5 241,-24.5 241,-5.5 297,-5.5 297,-24.5"/>
<text text-anchor="middle" x="269" y="-12.5" font-family="Helvetica,sans-Serif" font-size="10.00">stddef.h</text>
</a>
</g>
</g>
<!-- Node5&#45;&gt;Node6 -->
<g id="edge5_Node000005_Node000006" class="edge">
<title>Node5&#45;&gt;Node6</title>
<g id="a_edge5_Node000005_Node000006"><a xlink:title=" ">
<path fill="none" stroke="#63b8ff" d="M269,-71.37C269,-62.16 269,-47.29 269,-35.27"/>
<polygon fill="#63b8ff" stroke="#63b8ff" points="272.5,-34.91 269,-24.91 265.5,-34.91 272.5,-34.91"/>
</a>
</g>
</g>
<!-- Node8 -->
<g id="Node000008" class="node">
<title>Node8</title>
<g id="a_Node000008"><a xlink:href="fprintf__color_8h.html" target="_top" xlink:title="Header file for fprintf_color() function.">
<polygon fill="white" stroke="#666666" points="464,-30 346,-30 346,0 464,0 464,-30"/>
<text text-anchor="start" x="354" y="-18" font-family="Helvetica,sans-Serif" font-size="10.00">../fprintf_color/fprintf</text>
<text text-anchor="middle" x="405" y="-7" font-family="Helvetica,sans-Serif" font-size="10.00">_color.h</text>
</a>
</g>
</g>
<!-- Node7&#45;&gt;Node8 -->
<g id="edge8_Node000007_Node000008" class="edge">
<title>Node7&#45;&gt;Node8</title>
<g id="a_edge8_Node000007_Node000008"><a xlink:title=" ">
<path fill="none" stroke="#63b8ff" d="M405,-65.8C405,-58.34 405,-48.99 405,-40.41"/>
<polygon fill="#63b8ff" stroke="#63b8ff" points="408.5,-40.16 405,-30.16 401.5,-40.16 408.5,-40.16"/>
</a>
</g>
</g>
</g>
</svg>
