<?xml version="1.0" encoding="UTF-8" standalone="no"?>
<!DOCTYPE svg PUBLIC "-//W3C//DTD SVG 1.1//EN"
 "http://www.w3.org/Graphics/SVG/1.1/DTD/svg11.dtd">
<!-- Generated by graphviz version 2.43.0 (0)
 -->
<!-- Title: src/interactive_mode/interactive_mode.h Pages: 1 -->
<svg width="248pt" height="170pt"
 viewBox="0.00 0.00 248.00 170.00" xmlns="http://www.w3.org/2000/svg" xmlns:xlink="http://www.w3.org/1999/xlink">
<g id="graph0" class="graph" transform="scale(1 1) rotate(0) translate(4 166)">
<title>src/interactive_mode/interactive_mode.h</title>
<!-- Node1 -->
<g id="Node000001" class="node">
<title>Node1</title>
<g id="a_Node000001"><a xlink:title="Argument parser API for interactive mode.">
<polygon fill="#999999" stroke="#666666" points="201,-162 82,-162 82,-132 201,-132 201,-162"/>
<text text-anchor="start" x="90" y="-150" font-family="Helvetica,sans-Serif" font-size="10.00">src/interactive_mode</text>
<text text-anchor="middle" x="141.5" y="-139" font-family="Helvetica,sans-Serif" font-size="10.00">/interactive_mode.h</text>
</a>
</g>
</g>
<!-- Node2 -->
<g id="Node000002" class="node">
<title>Node2</title>
<g id="a_Node000002"><a xlink:href="argument__parser__internal_8h.html" target="_top" xlink:title="Argument parser internal API exposed for testing.">
<polygon fill="white" stroke="#666666" points="155,-96 0,-96 0,-66 155,-66 155,-96"/>
<text text-anchor="start" x="8" y="-84" font-family="Helvetica,sans-Serif" font-size="10.00">src/interactive_mode</text>
<text text-anchor="middle" x="77.5" y="-73" font-family="Helvetica,sans-Serif" font-size="10.00">/argument_parser_internal.h</text>
</a>
</g>
</g>
<!-- Node1&#45;&gt;Node2 -->
<g id="edge1_Node000001_Node000002" class="edge">
<title>Node1&#45;&gt;Node2</title>
<g id="a_edge1_Node000001_Node000002"><a xlink:title=" ">
<path fill="none" stroke="#63b8ff" d="M120.15,-124.65C110.77,-115.27 100.03,-104.53 91.66,-96.16"/>
<polygon fill="#63b8ff" stroke="#63b8ff" points="117.75,-127.2 127.3,-131.8 122.7,-122.25 117.75,-127.2"/>
</a>
</g>
</g>
<!-- Node4 -->
<g id="Node000004" class="node">
<title>Node4</title>
<g id="a_Node000004"><a xlink:href="main_8c.html" target="_top" xlink:title="Interactive program to play with the HashTable.">
<polygon fill="white" stroke="#666666" points="240,-90.5 173,-90.5 173,-71.5 240,-71.5 240,-90.5"/>
<text text-anchor="middle" x="206.5" y="-78.5" font-family="Helvetica,sans-Serif" font-size="10.00">src/main.c</text>
</a>
</g>
</g>
<!-- Node1&#45;&gt;Node4 -->
<g id="edge3_Node000001_Node000004" class="edge">
<title>Node1&#45;&gt;Node4</title>
<g id="a_edge3_Node000001_Node000004"><a xlink:title=" ">
<path fill="none" stroke="#63b8ff" d="M163.23,-124.6C174.92,-113.1 188.7,-99.52 197.52,-90.84"/>
<polygon fill="#63b8ff" stroke="#63b8ff" points="160.6,-122.29 155.93,-131.8 165.51,-127.27 160.6,-122.29"/>
</a>
</g>
</g>
<!-- Node3 -->
<g id="Node000003" class="node">
<title>Node3</title>
<g id="a_Node000003"><a xlink:href="argument__parser_8c.html" target="_top" xlink:title="Argument parser API for interactive mode.">
<polygon fill="white" stroke="#666666" points="137,-30 18,-30 18,0 137,0 137,-30"/>
<text text-anchor="start" x="26" y="-18" font-family="Helvetica,sans-Serif" font-size="10.00">src/interactive_mode</text>
<text text-anchor="middle" x="77.5" y="-7" font-family="Helvetica,sans-Serif" font-size="10.00">/argument_parser.c</text>
</a>
</g>
</g>
<!-- Node2&#45;&gt;Node3 -->
<g id="edge2_Node000002_Node000003" class="edge">
<title>Node2&#45;&gt;Node3</title>
<g id="a_edge2_Node000002_Node000003"><a xlink:title=" ">
<path fill="none" stroke="#63b8ff" d="M77.5,-55.54C77.5,-46.96 77.5,-37.61 77.5,-30.16"/>
<polygon fill="#63b8ff" stroke="#63b8ff" points="74,-55.8 77.5,-65.8 81,-55.8 74,-55.8"/>
</a>
</g>
</g>
</g>
</svg>
