<?xml version="1.0" encoding="UTF-8" standalone="no"?>
<!DOCTYPE svg PUBLIC "-//W3C//DTD SVG 1.1//EN"
 "http://www.w3.org/Graphics/SVG/1.1/DTD/svg11.dtd">
<!-- Generated by graphviz version 2.43.0 (0)
 -->
<!-- Title: src/main.c Pages: 1 -->
<svg width="492pt" height="159pt"
 viewBox="0.00 0.00 492.00 159.00" xmlns="http://www.w3.org/2000/svg" xmlns:xlink="http://www.w3.org/1999/xlink">
<g id="graph0" class="graph" transform="scale(1 1) rotate(0) translate(4 155)">
<title>src/main.c</title>
<!-- Node1 -->
<g id="Node000001" class="node">
<title>Node1</title>
<g id="a_Node000001"><a xlink:title="Interactive program to play with the HashTable.">
<polygon fill="#999999" stroke="#666666" points="240.5,-151 173.5,-151 173.5,-132 240.5,-132 240.5,-151"/>
<text text-anchor="middle" x="207" y="-139" font-family="Helvetica,sans-Serif" font-size="10.00">src/main.c</text>
</a>
</g>
</g>
<!-- Node2 -->
<g id="Node000002" class="node">
<title>Node2</title>
<g id="a_Node000002"><a xlink:title=" ">
<polygon fill="#e0e0e0" stroke="#999999" points="50,-90.5 0,-90.5 0,-71.5 50,-71.5 50,-90.5"/>
<text text-anchor="middle" x="25" y="-78.5" font-family="Helvetica,sans-Serif" font-size="10.00">stdio.h</text>
</a>
</g>
</g>
<!-- Node1&#45;&gt;Node2 -->
<g id="edge1_Node000001_Node000002" class="edge">
<title>Node1&#45;&gt;Node2</title>
<g id="a_edge1_Node000001_Node000002"><a xlink:title=" ">
<path fill="none" stroke="#63b8ff" d="M175.24,-131.93C145.07,-123.56 98.57,-110.06 59,-96 57.57,-95.49 56.12,-94.96 54.65,-94.41"/>
<polygon fill="#63b8ff" stroke="#63b8ff" points="55.6,-91.02 45.01,-90.62 53.04,-97.54 55.6,-91.02"/>
</a>
</g>
</g>
<!-- Node3 -->
<g id="Node000003" class="node">
<title>Node3</title>
<g id="a_Node000003"><a xlink:title=" ">
<polygon fill="#e0e0e0" stroke="#999999" points="121.5,-90.5 68.5,-90.5 68.5,-71.5 121.5,-71.5 121.5,-90.5"/>
<text text-anchor="middle" x="95" y="-78.5" font-family="Helvetica,sans-Serif" font-size="10.00">stdlib.h</text>
</a>
</g>
</g>
<!-- Node1&#45;&gt;Node3 -->
<g id="edge2_Node000001_Node000003" class="edge">
<title>Node1&#45;&gt;Node3</title>
<g id="a_edge2_Node000001_Node000003"><a xlink:title=" ">
<path fill="none" stroke="#63b8ff" d="M190.47,-131.87C172.03,-122.23 141.96,-106.53 120.49,-95.31"/>
<polygon fill="#63b8ff" stroke="#63b8ff" points="122.08,-92.19 111.59,-90.67 118.84,-98.4 122.08,-92.19"/>
</a>
</g>
</g>
<!-- Node4 -->
<g id="Node000004" class="node">
<title>Node4</title>
<g id="a_Node000004"><a xlink:href="hash__table_8h.html" target="_top" xlink:title="Public API for HashTable.">
<polygon fill="white" stroke="#666666" points="274.5,-90.5 139.5,-90.5 139.5,-71.5 274.5,-71.5 274.5,-90.5"/>
<text text-anchor="middle" x="207" y="-78.5" font-family="Helvetica,sans-Serif" font-size="10.00">hash_table/hash_table.h</text>
</a>
</g>
</g>
<!-- Node1&#45;&gt;Node4 -->
<g id="edge3_Node000001_Node000004" class="edge">
<title>Node1&#45;&gt;Node4</title>
<g id="a_edge3_Node000001_Node000004"><a xlink:title=" ">
<path fill="none" stroke="#63b8ff" d="M207,-131.87C207,-123.75 207,-111.31 207,-100.89"/>
<polygon fill="#63b8ff" stroke="#63b8ff" points="210.5,-100.67 207,-90.67 203.5,-100.67 210.5,-100.67"/>
</a>
</g>
</g>
<!-- Node6 -->
<g id="Node000006" class="node">
<title>Node6</title>
<g id="a_Node000006"><a xlink:href="interactive__mode_8h.html" target="_top" xlink:title="Argument parser API for interactive mode.">
<polygon fill="white" stroke="#666666" points="451,-96 293,-96 293,-66 451,-66 451,-96"/>
<text text-anchor="start" x="301" y="-84" font-family="Helvetica,sans-Serif" font-size="10.00">interactive_mode/interactive</text>
<text text-anchor="middle" x="372" y="-73" font-family="Helvetica,sans-Serif" font-size="10.00">_mode.h</text>
</a>
</g>
</g>
<!-- Node1&#45;&gt;Node6 -->
<g id="edge5_Node000001_Node000006" class="edge">
<title>Node1&#45;&gt;Node6</title>
<g id="a_edge5_Node000001_Node000006"><a xlink:title=" ">
<path fill="none" stroke="#63b8ff" d="M230.99,-131.99C254.95,-123.5 292.46,-110.2 322.77,-99.45"/>
<polygon fill="#63b8ff" stroke="#63b8ff" points="324.08,-102.7 332.33,-96.06 321.74,-96.11 324.08,-102.7"/>
</a>
</g>
</g>
<!-- Node7 -->
<g id="Node000007" class="node">
<title>Node7</title>
<g id="a_Node000007"><a xlink:href="fprintf__color_8h.html" target="_top" xlink:title="Header file for fprintf_color() function.">
<polygon fill="white" stroke="#666666" points="484,-30 366,-30 366,0 484,0 484,-30"/>
<text text-anchor="start" x="374" y="-18" font-family="Helvetica,sans-Serif" font-size="10.00">../fprintf_color/fprintf</text>
<text text-anchor="middle" x="425" y="-7" font-family="Helvetica,sans-Serif" font-size="10.00">_color.h</text>
</a>
</g>
</g>
<!-- Node1&#45;&gt;Node7 -->
<g id="edge7_Node000001_Node000007" class="edge">
<title>Node1&#45;&gt;Node7</title>
<g id="a_edge7_Node000001_Node000007"><a xlink:title=" ">
<path fill="none" stroke="#63b8ff" d="M240.88,-139.71C303.25,-137.47 432.4,-128.88 460,-96 474.32,-78.94 460.67,-55.1 446.44,-37.89"/>
<polygon fill="#63b8ff" stroke="#63b8ff" points="448.76,-35.23 439.53,-30.04 443.5,-39.86 448.76,-35.23"/>
</a>
</g>
</g>
<!-- Node5 -->
<g id="Node000005" class="node">
<title>Node5</title>
<g id="a_Node000005"><a xlink:title=" ">
<polygon fill="#e0e0e0" stroke="#999999" points="238,-24.5 176,-24.5 176,-5.5 238,-5.5 238,-24.5"/>
<text text-anchor="middle" x="207" y="-12.5" font-family="Helvetica,sans-Serif" font-size="10.00">stdbool.h</text>
</a>
</g>
</g>
<!-- Node4&#45;&gt;Node5 -->
<g id="edge4_Node000004_Node000005" class="edge">
<title>Node4&#45;&gt;Node5</title>
<g id="a_edge4_Node000004_Node000005"><a xlink:title=" ">
<path fill="none" stroke="#63b8ff" d="M207,-71.37C207,-62.16 207,-47.29 207,-35.27"/>
<polygon fill="#63b8ff" stroke="#63b8ff" points="210.5,-34.91 207,-24.91 203.5,-34.91 210.5,-34.91"/>
</a>
</g>
</g>
<!-- Node6&#45;&gt;Node7 -->
<g id="edge6_Node000006_Node000007" class="edge">
<title>Node6&#45;&gt;Node7</title>
<g id="a_edge6_Node000006_Node000007"><a xlink:title=" ">
<path fill="none" stroke="#63b8ff" d="M383.76,-65.8C390.56,-57.59 399.24,-47.1 406.89,-37.87"/>
<polygon fill="#63b8ff" stroke="#63b8ff" points="409.59,-40.1 413.27,-30.16 404.2,-35.63 409.59,-40.1"/>
</a>
</g>
</g>
</g>
</svg>
