<?xml version="1.0" encoding="UTF-8" standalone="no"?>
<!DOCTYPE svg PUBLIC "-//W3C//DTD SVG 1.1//EN"
 "http://www.w3.org/Graphics/SVG/1.1/DTD/svg11.dtd">
<!-- Generated by graphviz version 2.43.0 (0)
 -->
<!-- Title: src/main.c Pages: 1 -->
<svg width="388pt" height="148pt"
 viewBox="0.00 0.00 388.00 148.00" xmlns="http://www.w3.org/2000/svg" xmlns:xlink="http://www.w3.org/1999/xlink">
<g id="graph0" class="graph" transform="scale(1 1) rotate(0) translate(4 144)">
<title>src/main.c</title>
<!-- Node1 -->
<g id="Node000001" class="node">
<title>Node1</title>
<g id="a_Node000001"><a xlink:title="Interactive program to play with the HashTable.">
<polygon fill="#999999" stroke="#666666" points="169.5,-140 102.5,-140 102.5,-121 169.5,-121 169.5,-140"/>
<text text-anchor="middle" x="136" y="-128" font-family="Helvetica,sans-Serif" font-size="10.00">src/main.c</text>
</a>
</g>
</g>
<!-- Node2 -->
<g id="Node000002" class="node">
<title>Node2</title>
<g id="a_Node000002"><a xlink:title=" ">
<polygon fill="#e0e0e0" stroke="#999999" points="50,-79.5 0,-79.5 0,-60.5 50,-60.5 50,-79.5"/>
<text text-anchor="middle" x="25" y="-67.5" font-family="Helvetica,sans-Serif" font-size="10.00">stdio.h</text>
</a>
</g>
</g>
<!-- Node1&#45;&gt;Node2 -->
<g id="edge1_Node000001_Node000002" class="edge">
<title>Node1&#45;&gt;Node2</title>
<g id="a_edge1_Node000001_Node000002"><a xlink:title=" ">
<path fill="none" stroke="#63b8ff" d="M119.62,-120.87C101.42,-111.28 71.8,-95.67 50.55,-84.47"/>
<polygon fill="#63b8ff" stroke="#63b8ff" points="51.92,-81.23 41.45,-79.67 48.66,-87.43 51.92,-81.23"/>
</a>
</g>
</g>
<!-- Node3 -->
<g id="Node000003" class="node">
<title>Node3</title>
<g id="a_Node000003"><a xlink:href="hash__table_8h.html" target="_top" xlink:title="Public API for HashTable.">
<polygon fill="white" stroke="#666666" points="203.5,-79.5 68.5,-79.5 68.5,-60.5 203.5,-60.5 203.5,-79.5"/>
<text text-anchor="middle" x="136" y="-67.5" font-family="Helvetica,sans-Serif" font-size="10.00">hash_table/hash_table.h</text>
</a>
</g>
</g>
<!-- Node1&#45;&gt;Node3 -->
<g id="edge2_Node000001_Node000003" class="edge">
<title>Node1&#45;&gt;Node3</title>
<g id="a_edge2_Node000001_Node000003"><a xlink:title=" ">
<path fill="none" stroke="#63b8ff" d="M136,-120.87C136,-112.75 136,-100.31 136,-89.89"/>
<polygon fill="#63b8ff" stroke="#63b8ff" points="139.5,-89.67 136,-79.67 132.5,-89.67 139.5,-89.67"/>
</a>
</g>
</g>
<!-- Node5 -->
<g id="Node000005" class="node">
<title>Node5</title>
<g id="a_Node000005"><a xlink:href="interactive__mode_8h.html" target="_top" xlink:title="Argument parser API for interactive mode.">
<polygon fill="white" stroke="#666666" points="380,-85 222,-85 222,-55 380,-55 380,-85"/>
<text text-anchor="start" x="230" y="-73" font-family="Helvetica,sans-Serif" font-size="10.00">interactive_mode/interactive</text>
<text text-anchor="middle" x="301" y="-62" font-family="Helvetica,sans-Serif" font-size="10.00">_mode.h</text>
</a>
</g>
</g>
<!-- Node1&#45;&gt;Node5 -->
<g id="edge4_Node000001_Node000005" class="edge">
<title>Node1&#45;&gt;Node5</title>
<g id="a_edge4_Node000001_Node000005"><a xlink:title=" ">
<path fill="none" stroke="#63b8ff" d="M159.99,-120.99C183.95,-112.5 221.46,-99.2 251.77,-88.45"/>
<polygon fill="#63b8ff" stroke="#63b8ff" points="253.08,-91.7 261.33,-85.06 250.74,-85.11 253.08,-91.7"/>
</a>
</g>
</g>
<!-- Node4 -->
<g id="Node000004" class="node">
<title>Node4</title>
<g id="a_Node000004"><a xlink:title=" ">
<polygon fill="#e0e0e0" stroke="#999999" points="167,-19 105,-19 105,0 167,0 167,-19"/>
<text text-anchor="middle" x="136" y="-7" font-family="Helvetica,sans-Serif" font-size="10.00">stdbool.h</text>
</a>
</g>
</g>
<!-- Node3&#45;&gt;Node4 -->
<g id="edge3_Node000003_Node000004" class="edge">
<title>Node3&#45;&gt;Node4</title>
<g id="a_edge3_Node000003_Node000004"><a xlink:title=" ">
<path fill="none" stroke="#63b8ff" d="M136,-60.37C136,-52.25 136,-39.81 136,-29.39"/>
<polygon fill="#63b8ff" stroke="#63b8ff" points="139.5,-29.17 136,-19.17 132.5,-29.17 139.5,-29.17"/>
</a>
</g>
</g>
<!-- Node6 -->
<g id="Node000006" class="node">
<title>Node6</title>
<g id="a_Node000006"><a xlink:title=" ">
<polygon fill="#e0e0e0" stroke="#999999" points="327.5,-19 274.5,-19 274.5,0 327.5,0 327.5,-19"/>
<text text-anchor="middle" x="301" y="-7" font-family="Helvetica,sans-Serif" font-size="10.00">stdint.h</text>
</a>
</g>
</g>
<!-- Node5&#45;&gt;Node6 -->
<g id="edge5_Node000005_Node000006" class="edge">
<title>Node5&#45;&gt;Node6</title>
<g id="a_edge5_Node000005_Node000006"><a xlink:title=" ">
<path fill="none" stroke="#63b8ff" d="M301,-54.84C301,-47.21 301,-37.7 301,-29.45"/>
<polygon fill="#63b8ff" stroke="#63b8ff" points="304.5,-29.27 301,-19.27 297.5,-29.27 304.5,-29.27"/>
</a>
</g>
</g>
</g>
</svg>
