<?xml version="1.0" encoding="UTF-8" standalone="no"?>
<!DOCTYPE svg PUBLIC "-//W3C//DTD SVG 1.1//EN"
 "http://www.w3.org/Graphics/SVG/1.1/DTD/svg11.dtd">
<!-- Generated by graphviz version 2.43.0 (0)
 -->
<!-- Title: src/printf_color/printf_color.c Pages: 1 -->
<svg width="230pt" height="93pt"
 viewBox="0.00 0.00 230.00 93.00" xmlns="http://www.w3.org/2000/svg" xmlns:xlink="http://www.w3.org/1999/xlink">
<g id="graph0" class="graph" transform="scale(1 1) rotate(0) translate(4 89)">
<title>src/printf_color/printf_color.c</title>
<!-- Node1 -->
<g id="Node000001" class="node">
<title>Node1</title>
<g id="a_Node000001"><a xlink:title="printf function with colored output using ANSI escape codes">
<polygon fill="#999999" stroke="#666666" points="155.5,-85 36.5,-85 36.5,-55 155.5,-55 155.5,-85"/>
<text text-anchor="start" x="44.5" y="-73" font-family="Helvetica,sans-Serif" font-size="10.00">src/printf_color/printf</text>
<text text-anchor="middle" x="96" y="-62" font-family="Helvetica,sans-Serif" font-size="10.00">_color.c</text>
</a>
</g>
</g>
<!-- Node2 -->
<g id="Node000002" class="node">
<title>Node2</title>
<g id="a_Node000002"><a xlink:title=" ">
<polygon fill="#e0e0e0" stroke="#999999" points="50,-19 0,-19 0,0 50,0 50,-19"/>
<text text-anchor="middle" x="25" y="-7" font-family="Helvetica,sans-Serif" font-size="10.00">stdio.h</text>
</a>
</g>
</g>
<!-- Node1&#45;&gt;Node2 -->
<g id="edge1_Node000001_Node000002" class="edge">
<title>Node1&#45;&gt;Node2</title>
<g id="a_edge1_Node000001_Node000002"><a xlink:title=" ">
<path fill="none" stroke="#63b8ff" d="M78.81,-54.84C68.19,-46.09 54.56,-34.85 43.67,-25.88"/>
<polygon fill="#63b8ff" stroke="#63b8ff" points="45.58,-22.92 35.64,-19.27 41.13,-28.33 45.58,-22.92"/>
</a>
</g>
</g>
<!-- Node3 -->
<g id="Node000003" class="node">
<title>Node3</title>
<g id="a_Node000003"><a xlink:title=" ">
<polygon fill="#e0e0e0" stroke="#999999" points="124,-19 68,-19 68,0 124,0 124,-19"/>
<text text-anchor="middle" x="96" y="-7" font-family="Helvetica,sans-Serif" font-size="10.00">stdarg.h</text>
</a>
</g>
</g>
<!-- Node1&#45;&gt;Node3 -->
<g id="edge2_Node000001_Node000003" class="edge">
<title>Node1&#45;&gt;Node3</title>
<g id="a_edge2_Node000001_Node000003"><a xlink:title=" ">
<path fill="none" stroke="#63b8ff" d="M96,-54.84C96,-47.21 96,-37.7 96,-29.45"/>
<polygon fill="#63b8ff" stroke="#63b8ff" points="99.5,-29.27 96,-19.27 92.5,-29.27 99.5,-29.27"/>
</a>
</g>
</g>
<!-- Node4 -->
<g id="Node000004" class="node">
<title>Node4</title>
<g id="a_Node000004"><a xlink:href="printf__color_8h.html" target="_top" xlink:title="Header file for printf_color() function.">
<polygon fill="white" stroke="#666666" points="222,-19 142,-19 142,0 222,0 222,-19"/>
<text text-anchor="middle" x="182" y="-7" font-family="Helvetica,sans-Serif" font-size="10.00">printf_color.h</text>
</a>
</g>
</g>
<!-- Node1&#45;&gt;Node4 -->
<g id="edge3_Node000001_Node000004" class="edge">
<title>Node1&#45;&gt;Node4</title>
<g id="a_edge3_Node000001_Node000004"><a xlink:title=" ">
<path fill="none" stroke="#63b8ff" d="M116.82,-54.84C130.15,-45.77 147.39,-34.04 160.79,-24.92"/>
<polygon fill="#63b8ff" stroke="#63b8ff" points="163.07,-27.61 169.37,-19.09 159.13,-21.83 163.07,-27.61"/>
</a>
</g>
</g>
</g>
</svg>
